<svg width="235" height="44" viewBox="0 0 235 44" fill="none" xmlns="http://www.w3.org/2000/svg">
<path d="M0 22L20.5333 0L33.7333 10.2667L19.0667 22H0Z" fill="url(#paint0_linear_6566_125)"/>
<path d="M0 22L20.5333 44L33.7333 33.7333L19.0667 22H0Z" fill="url(#paint1_linear_6566_125)"/>
<path d="M67.4668 22L46.9335 0L33.7335 10.2667L48.4001 22H67.4668Z" fill="#D4B56E"/>
<path d="M67.4668 22L46.9335 44L33.7335 33.7333L48.4001 22H67.4668Z" fill="#8D630D"/>
<path d="M94.5503 37.232L101.062 6.38721H104.108L110.658 37.232H107.802L106.279 28.9686H98.9295L97.3682 37.232H94.5503ZM99.3484 26.8742H105.898L102.623 10.2333L99.3484 26.8742Z" fill="white"/>
<path d="M83.3494 37.6128C81.2677 37.6128 79.6429 37.2447 78.4751 36.5085C77.3327 35.7469 76.5457 34.706 76.1142 33.3859C75.6826 32.0404 75.4668 30.5172 75.4668 28.8163V6.38721H78.2847V28.8925C78.2847 30.0857 78.4117 31.1773 78.6655 32.1674C78.9448 33.1321 79.4525 33.8937 80.1887 34.4522C80.9249 35.0107 81.9785 35.2899 83.3494 35.2899C84.6695 35.2899 85.6976 35.0107 86.4338 34.4522C87.17 33.8683 87.6778 33.094 87.957 32.1293C88.2617 31.1646 88.414 30.0857 88.414 28.8925V6.38721H91.1938V28.8163C91.1938 30.5172 90.9654 32.0404 90.5084 33.3859C90.0514 34.706 89.2518 35.7469 88.1094 36.5085C86.967 37.2447 85.3803 37.6128 83.3494 37.6128Z" fill="white"/>
<path d="M219.139 37.2511V6.40625H225.841C228.126 6.40625 229.928 6.76166 231.249 7.47249C232.594 8.15793 233.546 9.19878 234.105 10.5951C234.688 11.9913 234.98 13.7303 234.98 15.812V27.1598C234.98 29.3431 234.688 31.1836 234.105 32.6815C233.546 34.1793 232.619 35.3217 231.325 36.1087C230.055 36.8703 228.342 37.2511 226.184 37.2511H219.139ZM223.442 34.1666H225.879C227.453 34.1666 228.57 33.8619 229.23 33.2526C229.89 32.6434 230.284 31.7548 230.411 30.587C230.563 29.4193 230.639 28.0103 230.639 26.3602V16.3451C230.639 14.7458 230.538 13.4511 230.335 12.461C230.132 11.4709 229.687 10.7474 229.002 10.2904C228.316 9.83345 227.238 9.60497 225.765 9.60497H223.442V34.1666Z" fill="white"/>
<path d="M204.003 37.2511V6.40625H208.306V34.1666H216.189V37.2511H204.003Z" fill="white"/>
<path d="M194.787 37.2511V6.40625H199.014V37.2511H194.787Z" fill="white"/>
<path d="M181.841 37.5938C179.606 37.5938 177.893 37.1495 176.7 36.261C175.507 35.3724 174.694 34.1285 174.263 32.5291C173.831 30.9044 173.615 29.0131 173.615 26.8552V6.40625H177.728V27.0456C177.728 28.3657 177.817 29.5716 177.994 30.6632C178.172 31.7548 178.553 32.618 179.137 33.2526C179.746 33.8873 180.647 34.2047 181.841 34.2047C183.059 34.2047 183.96 33.8873 184.544 33.2526C185.128 32.618 185.509 31.7548 185.687 30.6632C185.864 29.5716 185.953 28.3657 185.953 27.0456V6.40625H190.028V26.8552C190.028 29.0131 189.812 30.9044 189.38 32.5291C188.949 34.1285 188.136 35.3724 186.943 36.261C185.775 37.1495 184.075 37.5938 181.841 37.5938Z" fill="white"/>
<path d="M153.912 37.2511V6.40625H160.995C162.391 6.40625 163.597 6.55857 164.613 6.86321C165.653 7.16785 166.517 7.6375 167.202 8.27217C167.887 8.90684 168.395 9.71921 168.725 10.7093C169.055 11.674 169.22 12.8164 169.22 14.1365C169.22 15.4058 169.055 16.5101 168.725 17.4494C168.421 18.3634 167.938 19.0869 167.278 19.62C166.644 20.1531 165.818 20.4959 164.803 20.6482C166.047 20.9274 167.05 21.4098 167.811 22.0952C168.573 22.7553 169.131 23.6184 169.487 24.6847C169.868 25.7255 170.058 26.9821 170.058 28.4546C170.058 29.7747 169.906 30.9805 169.601 32.0722C169.296 33.1638 168.814 34.0904 168.154 34.852C167.519 35.6136 166.694 36.2102 165.679 36.6418C164.689 37.048 163.508 37.2511 162.137 37.2511H153.912ZM158.215 34.1666H161.109C163.039 34.1666 164.321 33.7223 164.955 32.8338C165.615 31.9199 165.945 30.4601 165.945 28.4546C165.945 27.1599 165.768 26.0809 165.412 25.2178C165.082 24.3292 164.536 23.6692 163.775 23.2376C163.039 22.7807 162.036 22.5522 160.767 22.5522H158.215V34.1666ZM158.215 19.2773H160.767C161.985 19.2773 162.937 19.1123 163.623 18.7823C164.308 18.4268 164.79 17.8683 165.07 17.1067C165.349 16.3451 165.488 15.3551 165.488 14.1365C165.488 12.7148 165.273 11.6867 164.841 11.052C164.409 10.4173 163.737 10.0239 162.823 9.87153C161.909 9.69382 160.716 9.60497 159.243 9.60497H158.215V19.2773Z" fill="white"/>
<path d="M138.405 37.2511V6.40625H150.362V9.60497H142.708V19.8104H148.915V22.8568H142.708V34.1666H150.438V37.2511H138.405Z" fill="white"/>
<path d="M118.658 37.2511V6.40625H124.865C126.922 6.40625 128.622 6.6855 129.968 7.24401C131.313 7.77713 132.304 8.65297 132.938 9.87153C133.598 11.0647 133.928 12.6387 133.928 14.5935C133.928 15.7866 133.801 16.8783 133.547 17.8683C133.294 18.833 132.887 19.6581 132.329 20.3435C131.77 21.0036 131.034 21.4859 130.12 21.7906L134.499 37.2511H130.349L126.312 22.7807H122.961V37.2511H118.658ZM122.961 19.6962H124.599C125.817 19.6962 126.807 19.5439 127.569 19.2392C128.331 18.9346 128.889 18.4141 129.244 17.6779C129.6 16.9417 129.778 15.9136 129.778 14.5935C129.778 12.791 129.448 11.4963 128.787 10.7093C128.127 9.89692 126.82 9.49073 124.865 9.49073H122.961V19.6962Z" fill="white"/>
<defs>
<linearGradient id="paint0_linear_6566_125" x1="-4.4" y1="-10.2667" x2="66" y2="54.2667" gradientUnits="userSpaceOnUse">
<stop stop-color="#C9900A"/>
<stop offset="0.5" stop-color="#A67310"/>
<stop offset="1" stop-color="#6B4E0A"/>
</linearGradient>
<linearGradient id="paint1_linear_6566_125" x1="-4.4" y1="54.2667" x2="66" y2="-10.2667" gradientUnits="userSpaceOnUse">
<stop stop-color="#8A6010" stop-opacity="0.45"/>
<stop offset="1" stop-color="#C9900A" stop-opacity="0.65"/>
</linearGradient>
</defs>
</svg>
