<svg width="1074" height="1212" viewBox="0 0 1074 1212" fill="none" xmlns="http://www.w3.org/2000/svg">
<path d="M1038.85 868.858C1040.7 868.858 1040.85 869.529 1040.85 877.858C1040.85 884.878 1040.36 888.018 1038.65 892.108C1037.44 894.998 1034.22 901.188 1031.51 905.858C1028.79 910.538 1022.73 919.988 1018.04 926.858C1013.35 933.738 1004.12 946.558 997.507 955.358C990.907 964.158 979.416 979.008 971.986 988.358C961.086 1002.07 958.096 1006.52 956.556 1011.36C954.956 1016.41 954.736 1019.27 955.206 1029.36C955.506 1035.96 956.926 1050.36 958.356 1061.36C959.786 1072.36 962.727 1093.74 968.797 1136.36L953.346 1156.89L932.846 1156.87C921.567 1156.85 908.297 1156.38 903.346 1155.81C898.397 1155.25 888.046 1153.25 880.346 1151.38C872.647 1149.51 861.167 1146.12 854.846 1143.85C848.517 1141.58 838.166 1137.55 831.846 1134.9C825.516 1132.24 812.696 1126.39 786.346 1113.7L774.346 1113.76C767.747 1113.8 758.747 1114.25 754.346 1114.77C749.947 1115.29 743.306 1116.42 739.596 1117.28C735.887 1118.15 728.686 1120.46 723.596 1122.42C718.507 1124.37 713.447 1126.62 712.346 1127.4C711.246 1128.19 710.566 1129.03 710.846 1129.26C711.122 1129.5 718.55 1132.82 727.346 1136.65C736.146 1140.48 749.417 1146.51 756.846 1150.05C764.266 1153.58 773.607 1158.59 777.596 1161.17C781.586 1163.75 785.066 1166.76 785.346 1167.86C785.616 1168.96 785.616 1170.76 785.346 1171.86C785.066 1172.96 782.706 1175.38 780.096 1177.24C777.486 1179.1 772.646 1181.98 769.346 1183.63C766.046 1185.29 759.296 1188.33 754.346 1190.38C749.396 1192.44 739.716 1196.11 732.846 1198.55C725.967 1200.98 714.266 1204.49 706.846 1206.33C699.417 1208.18 690.087 1210.18 686.096 1210.78C681.996 1211.39 663.736 1211.88 644.096 1211.89C612.056 1211.92 609.206 1211.79 607.586 1210.14C606.616 1209.16 605.556 1206.56 604.656 1200.36L618.246 1189.61C630.086 1180.25 632.326 1178.86 635.596 1178.87C637.657 1178.88 641.597 1179.48 644.346 1180.2C647.096 1180.92 651.766 1182.83 654.726 1184.44C657.686 1186.04 662.846 1190.29 666.186 1193.86C669.666 1197.59 672.907 1200.22 673.797 1200.02C674.649 1199.84 682.998 1195.84 692.346 1191.15C701.696 1186.45 714.296 1179.89 720.346 1176.57C726.396 1173.25 733.146 1169.41 735.346 1168.04C738.936 1165.8 739.146 1165.47 737.346 1164.77C736.246 1164.35 733.316 1163.97 730.846 1163.93C728.366 1163.89 720.266 1163.16 712.846 1162.31C705.417 1161.46 692.816 1159.45 684.846 1157.85C676.867 1156.24 667.216 1153.67 663.396 1152.14C659.106 1150.43 654.576 1147.64 651.586 1144.86C647.026 1140.64 646.656 1139.92 645.677 1133.36C644.817 1127.65 644.906 1125.34 646.186 1120.86C647.046 1117.84 650.296 1110.19 653.396 1103.86C656.506 1097.54 660.886 1089.21 663.146 1085.36C665.406 1081.51 671.887 1071.27 677.547 1062.61C683.215 1053.95 687.503 1046.64 687.096 1046.38C686.686 1046.11 681.186 1050.5 674.886 1056.13C668.586 1061.76 660.096 1070.19 656.026 1074.86C651.946 1079.54 645.576 1087.41 641.876 1092.36C638.166 1097.31 632.886 1104.96 630.136 1109.36C627.396 1113.76 623.616 1120.2 621.746 1123.68C618.896 1128.98 617.706 1130.22 614.346 1131.41C612.146 1132.19 607.416 1133.3 603.846 1133.88C600.266 1134.45 589.466 1135.19 579.846 1135.53C566.647 1135.99 558.786 1135.73 547.846 1134.47C539.867 1133.56 532.337 1132.59 531.096 1132.33C529.856 1132.07 528.846 1131.19 528.846 1130.36C528.846 1129.27 530.816 1128.56 536.096 1127.74C540.087 1127.12 548.747 1125.3 555.346 1123.69C561.946 1122.09 573.867 1118.8 581.846 1116.39C589.816 1113.98 597.696 1111.52 599.346 1110.92C600.996 1110.32 602.116 1109.61 601.846 1109.33C601.566 1109.06 594.366 1109.59 585.846 1110.51C577.097 1111.45 562.076 1112.19 551.346 1112.2C537.927 1112.22 529.406 1111.72 522.346 1110.52C516.847 1109.58 510.317 1108.17 507.846 1107.37C505.366 1106.58 502.446 1104.99 501.346 1103.83C499.616 1102.02 499.546 1101.61 500.846 1100.81C501.667 1100.3 505.497 1098.68 509.346 1097.21C513.197 1095.74 522.867 1091.74 530.846 1088.33C538.816 1084.92 551.197 1079.24 558.346 1075.7C565.496 1072.16 575.807 1066.37 581.257 1062.82C586.716 1059.27 593.246 1054.11 595.786 1051.36C598.326 1048.61 600.776 1045.01 601.226 1043.36C601.666 1041.71 603.456 1038.56 605.186 1036.37C606.926 1034.17 610.636 1027.2 613.436 1020.87C616.236 1014.54 619.386 1007.16 620.436 1004.46C621.486 1001.77 622.796 999.409 623.346 999.219C623.898 999.03 635.6 1003.31 674.346 1018.58L680.346 1016.1C683.646 1014.74 690.397 1012.78 695.346 1011.75C701.466 1010.48 708.587 1009.88 717.596 1009.87C727.546 1009.86 732.836 1010.36 738.846 1011.86C743.246 1012.96 750.787 1015.57 755.596 1017.67C760.406 1019.76 767.716 1023.64 771.846 1026.3C775.966 1028.96 782.047 1033.21 785.346 1035.75C788.646 1038.28 797.906 1046.66 820.486 1068.36L848.416 1084.49C863.776 1093.36 883.996 1104.72 893.346 1109.72C902.696 1114.73 913.946 1120.41 918.346 1122.33C922.746 1124.26 927.356 1125.84 928.596 1125.85C930.726 1125.86 930.626 1125.54 926.816 1120.11C924.606 1116.95 921.706 1110.99 920.386 1106.86C919.056 1102.74 917.386 1096.66 916.666 1093.36C915.686 1088.88 915.356 1075.11 915.346 1038.86C915.346 992.198 915.427 990.148 917.427 984.858C918.567 981.838 921.267 976.689 923.427 973.429C925.577 970.169 930.046 965.338 933.346 962.698C936.646 960.058 942.717 956.248 946.846 954.248C950.967 952.248 959.747 946.538 966.346 941.559C972.946 936.589 983.746 928.228 990.346 922.979C996.946 917.729 1008.66 907.118 1016.38 899.398C1026.24 889.528 1031.36 883.578 1033.6 879.358C1035.35 876.058 1036.8 872.348 1036.82 871.108C1036.84 869.538 1037.45 868.858 1038.85 868.858ZM198.846 864.918C199.118 864.93 202.187 867.28 205.666 870.148C209.146 873.018 212.806 876.708 215.616 881.358L210.616 889.858C207.876 894.538 203.146 903.308 200.106 909.358C197.076 915.408 192.656 925.088 190.296 930.858C187.936 936.638 184.436 946.538 182.516 952.858C180.596 959.188 178.106 969.088 176.986 974.858C175.856 980.638 174.446 990.758 173.846 997.358C173.246 1003.96 172.996 1009.92 173.296 1010.61C173.636 1011.38 180.086 1005.95 190.096 996.479C199.036 988.019 210.396 977.558 215.346 973.229C220.296 968.899 227.716 962.618 231.846 959.278C235.966 955.928 242.717 950.729 246.846 947.719C250.966 944.699 257.716 940.138 261.846 937.568C268.116 933.668 270.166 932.898 274.346 932.868C277.096 932.838 280.246 933.458 281.346 934.238C283.236 935.578 283.266 935.879 281.846 939.998C281.016 942.388 276.386 952.448 271.536 962.358C266.686 972.258 258.687 987.108 253.757 995.358C248.817 1003.61 241.256 1015.31 229.106 1032.36L217.726 1034.18C211.467 1035.17 205.557 1036.19 204.596 1036.43C203.056 1036.81 202.846 1038.22 202.856 1048.11C202.866 1055.11 203.576 1062.76 204.726 1068.36C205.746 1073.31 207.926 1080.06 209.566 1083.36C211.216 1086.66 214.356 1090.94 216.556 1092.86C218.756 1094.79 222.306 1096.92 224.456 1097.59C226.596 1098.27 231.266 1098.84 234.846 1098.86C238.416 1098.89 243.146 1098.29 245.346 1097.54C247.547 1096.79 251.817 1094.6 254.846 1092.67C257.867 1090.74 264.506 1085.38 269.586 1080.76C274.666 1076.14 283.216 1067.37 288.586 1061.27C293.956 1055.18 302.616 1044.77 307.846 1038.15C316.106 1027.69 318.586 1025.29 326.846 1019.74C332.067 1016.24 342.647 1010.18 350.346 1006.29C358.046 1002.4 369.297 997.578 375.346 995.578C381.396 993.578 389.947 991.059 394.346 989.969C398.746 988.879 405.716 987.529 409.846 986.969C413.967 986.409 422.186 985.598 428.106 985.158C435.136 984.638 438.856 984.708 438.836 985.358C438.826 985.908 438.486 986.859 438.076 987.479C437.676 988.089 434.866 989.298 431.846 990.168C428.816 991.028 419.366 995.258 410.846 999.578C402.317 1003.89 387.696 1012.16 378.346 1017.95C368.997 1023.75 357.637 1030.93 353.096 1033.92C347.557 1037.58 345.186 1039.69 345.876 1040.36C346.556 1041.03 347.803 1040.97 349.616 1040.2C351.116 1039.55 359.996 1035.57 369.346 1031.33C378.696 1027.1 394.897 1020.37 405.346 1016.37C415.796 1012.37 428.846 1007.69 434.346 1005.97C439.846 1004.25 445.246 1002.84 446.346 1002.83C447.966 1002.82 448.756 1004.19 450.526 1010.09C451.716 1014.09 453.186 1020.06 453.776 1023.36C454.376 1026.66 454.856 1031.27 454.856 1033.61C454.846 1037.3 454.276 1038.41 450.596 1041.97C448.256 1044.23 442.166 1049.3 437.056 1053.22C431.947 1057.15 427.806 1060.59 427.836 1060.86C427.876 1061.14 430.036 1062.81 432.626 1064.59C435.226 1066.36 442.966 1073.11 449.846 1079.59C456.717 1086.06 476.517 1105.81 525.346 1155.6L525.596 1160.73C525.826 1165.44 525.626 1165.97 523.096 1167.22C521.587 1167.97 518.996 1168.9 517.346 1169.29C515.696 1169.68 508.046 1170.62 500.346 1171.38C489.508 1172.45 486.187 1172.49 485.636 1171.56C485.096 1170.64 484.646 1170.65 483.686 1171.61C482.736 1172.57 472.906 1172.86 441.396 1172.86C418.816 1172.86 388.417 1173.31 373.846 1173.86C359.267 1174.41 330.916 1175.54 310.846 1176.37C290.767 1177.2 272.438 1178.1 270.096 1178.37C267.077 1178.72 264.686 1178.28 261.846 1176.86C259.646 1175.76 257.616 1173.96 257.346 1172.86C257.066 1171.72 257.736 1169.67 258.906 1168.11C260.046 1166.6 264.886 1161.35 269.656 1156.46C274.436 1151.56 280.596 1145.85 283.346 1143.77C286.096 1141.69 290.487 1139.05 297.846 1135.86L309.096 1140.3C315.287 1142.74 328.557 1148.59 356.846 1161.86L364.596 1159.41C368.857 1158.06 378.417 1155.38 385.846 1153.45C393.266 1151.52 406.097 1148.82 414.346 1147.46C422.596 1146.1 434.297 1144.5 440.346 1143.92C446.396 1143.33 457.087 1142.85 464.096 1142.86C474.766 1142.86 476.846 1142.62 476.846 1141.36C476.846 1140.43 474.096 1138.77 469.596 1136.98C465.606 1135.4 458.746 1132.93 454.346 1131.5C449.946 1130.07 440.716 1127.56 433.846 1125.92C426.967 1124.27 415.946 1122.01 409.346 1120.88C402.747 1119.76 395.997 1118.84 394.346 1118.85C391.916 1118.85 390.056 1117.48 384.526 1111.61C380.776 1107.62 375.266 1101.55 366.846 1091.86L368.596 1079.87C369.556 1073.28 370.006 1067.88 369.596 1067.87C369.186 1067.87 364.456 1071.09 359.096 1075.05C353.737 1079 345.066 1084.99 339.846 1088.37C334.617 1091.74 326.066 1097.01 320.846 1100.08C315.616 1103.15 306.846 1107.92 301.346 1110.68C295.846 1113.45 286.166 1117.74 279.846 1120.23C273.517 1122.71 263.846 1125.84 258.346 1127.18C252.847 1128.52 244.296 1130.17 239.346 1130.84C233.706 1131.61 222.866 1131.91 210.346 1131.66C192.877 1131.31 189.656 1130.98 184.846 1129.11C181.816 1127.93 177.096 1125.19 174.346 1123.03C171.597 1120.86 167.767 1116.9 165.846 1114.22C162.816 1110.01 162.316 1109.66 162.096 1111.61C161.956 1112.85 162.816 1115.77 164.016 1118.11C165.206 1120.45 168.246 1124.55 170.766 1127.22C173.286 1129.9 177.367 1133.25 179.846 1134.69C182.316 1136.12 186.597 1138.13 189.346 1139.17C192.096 1140.2 197.947 1141.68 202.346 1142.45C206.747 1143.22 215.517 1143.83 221.846 1143.79C228.167 1143.75 239.987 1142.96 248.096 1142.04C262.736 1140.37 262.846 1140.38 262.846 1142.36C262.846 1144.06 260.936 1144.92 250.096 1148.12C243.087 1150.18 233.067 1152.84 227.846 1154.02C221.047 1155.57 214.936 1156.19 206.346 1156.21C199.747 1156.22 191.647 1155.66 188.346 1154.95C185.047 1154.25 179.416 1152.52 175.846 1151.11C172.267 1149.71 166.866 1146.89 163.846 1144.85C160.816 1142.81 155.696 1138.27 152.456 1134.75C149.226 1131.24 144.856 1125.44 142.766 1121.86C140.666 1118.29 137.627 1111.99 136.007 1107.86C134.387 1103.74 132.326 1096.09 131.436 1090.86C130.546 1085.64 129.486 1072.36 128.346 1041.36L122.846 1041.08C119.816 1040.93 114.646 1041.51 111.346 1042.38C108.047 1043.25 102.436 1045.4 98.8865 1047.16C94.7166 1049.23 89.5763 1053.13 84.3865 1058.17C77.0365 1065.3 76.6064 1065.94 79.3464 1065.51C80.9967 1065.25 85.7166 1064.11 89.8464 1062.97C93.9664 1061.83 97.4564 1060.89 97.5964 1060.88C97.7363 1060.87 97.8665 1061.42 97.8865 1062.11C97.9065 1062.8 93.0764 1068.12 87.1365 1073.94C81.2066 1079.76 73.6466 1087.06 70.3464 1090.16C67.047 1093.26 63.8972 1095.82 63.3464 1095.84C62.7864 1095.86 61.7864 1090.1 59.8464 1069.86L72.7761 1056.11C79.8861 1048.55 88.8766 1038.54 92.7566 1033.86C96.6365 1029.19 101.116 1022.89 102.706 1019.86C105.016 1015.47 105.726 1012.55 106.236 1005.36C106.586 1000.41 107.736 992.758 108.796 988.358C109.856 983.958 111.916 977.658 113.386 974.358C114.856 971.058 117.817 965.888 123.886 957.358L129.616 960.139C132.766 961.659 136.356 962.899 137.596 962.889C138.946 962.868 141.116 961.358 143.026 959.108C144.766 957.048 147.066 953.338 148.136 950.858C149.206 948.388 150.306 943.438 150.596 939.858C151.046 934.218 150.766 932.658 148.476 928.108C147.026 925.218 145.846 922.408 145.846 921.858C145.846 921.308 148.546 917.258 151.846 912.858C155.146 908.458 161.336 900.948 165.596 896.168C169.857 891.388 178.967 882.398 185.846 876.188C192.716 869.989 198.566 864.908 198.846 864.918ZM692.596 783.918C693.286 783.888 694.297 784.759 694.846 785.858C695.396 786.959 695.846 790.789 695.846 794.358C695.846 797.938 695.136 804.348 694.276 808.608C693.406 812.868 691.366 820.408 689.726 825.358C688.086 830.308 683.886 840.208 680.396 847.358C676.906 854.508 670.516 865.879 658.346 884.889L644.346 890.929C636.647 894.249 626.826 898.858 622.526 901.168C618.226 903.468 613.676 906.488 612.416 907.858C611.056 909.338 609.756 912.509 609.236 915.589C608.746 918.469 608.456 920.829 608.596 920.839C608.741 920.847 612.109 919.557 616.096 917.979C620.086 916.389 627.847 913.739 633.346 912.089C638.846 910.439 645.366 908.749 647.846 908.349C650.846 907.855 652.596 907.982 653.096 908.729C653.516 909.359 651.406 914.629 648.356 920.608C645.346 926.518 639.326 936.088 634.986 941.858C630.656 947.638 622.426 956.858 616.706 962.358C610.986 967.858 602.496 975.328 597.826 978.948C593.166 982.578 585.396 988.198 580.556 991.448C575.726 994.698 571.796 997.698 571.806 998.108C571.826 998.518 572.636 998.858 573.596 998.858C574.557 998.868 578.717 997.578 582.846 995.998C586.966 994.418 592.147 992.228 594.346 991.118C596.546 990.018 599.246 988.839 600.346 988.509C601.446 988.179 602.916 988.228 603.606 988.628C604.576 989.188 603.907 992.219 600.797 1001.36C598.547 1007.96 594.557 1017.86 591.927 1023.36C589.297 1028.86 585.046 1036.17 582.496 1039.61C579.936 1043.05 575.936 1047.23 573.596 1048.91C571.256 1050.58 566.866 1052.67 563.846 1053.55C560.817 1054.42 555.866 1056.38 552.846 1057.91C549.816 1059.44 542.616 1062.78 536.846 1065.35C531.066 1067.92 518.466 1073.16 508.846 1077.01C499.218 1080.85 490.789 1083.74 490.096 1083.43C489.406 1083.12 489.086 1082.07 489.386 1081.11C489.687 1080.15 491.476 1071.71 493.366 1062.36C495.246 1053.01 497.316 1040.19 499.106 1022.36L489.866 983.358C481.676 948.778 480.686 943.568 481.066 937.358C481.386 932.278 482.356 928.578 484.586 923.858C486.276 920.288 489.507 914.998 491.757 912.108C494.007 909.218 495.846 906.408 495.846 905.858C495.846 905.308 493.086 906.768 489.706 909.108C486.326 911.448 481.566 915.608 479.116 918.358C476.676 921.108 473.346 926.058 471.726 929.358C470.106 932.658 468.256 938.288 467.616 941.858C466.496 948.088 466.637 949.228 471.177 969.358C473.776 980.908 476.796 994.968 477.876 1000.61C478.956 1006.25 480.126 1013.9 480.476 1017.61C480.836 1021.51 480.576 1027.52 479.846 1031.86C479.166 1035.99 477.336 1043.64 475.786 1048.86C474.236 1054.09 471.596 1062.07 469.906 1066.61C467.536 1073 466.456 1074.8 465.096 1074.59C463.546 1074.35 463.406 1073.39 463.846 1066.34C464.116 1061.95 464.336 1048.69 464.316 1036.86C464.286 1015.94 464.196 1015.04 461.106 1003.36C459.356 996.758 454.656 981.238 450.666 968.858C443.626 947.069 443.396 946.048 443.406 936.358C443.406 928.398 443.866 925.138 445.666 920.358C446.916 917.058 449.896 911.438 452.286 907.858C454.676 904.288 459.726 898.248 463.496 894.448C467.266 890.648 473.946 884.729 478.346 881.299C482.746 877.869 491.296 871.958 497.346 868.168C503.396 864.368 511.267 859.648 514.846 857.668C518.417 855.698 531.697 848.898 544.346 842.568C556.996 836.238 572.746 828.718 579.346 825.858C585.946 822.998 598.097 817.958 606.346 814.648C614.596 811.348 629.447 805.708 639.346 802.128C649.246 798.548 664.997 792.999 674.346 789.799C683.696 786.599 691.906 783.958 692.596 783.918ZM705.346 640.349C708.097 640.609 718.667 641.288 728.846 641.858C739.016 642.418 754.317 643.328 762.846 643.868C771.366 644.408 785.767 645.328 794.846 645.898C803.917 646.468 826.867 648.059 845.846 649.429C864.816 650.789 884.616 652.338 889.846 652.868C895.066 653.398 901.146 654.079 903.346 654.389C905.546 654.709 908.697 655.218 913.346 656.108L912.606 665.729C912.206 671.019 910.956 678.949 909.846 683.349C908.726 687.749 907.086 693.599 906.196 696.349C905.306 699.099 902.877 705.629 900.797 710.849C898.727 716.079 895.136 724.399 892.816 729.349C890.506 734.299 885.736 743.639 882.226 750.099C878.717 756.567 875.397 761.847 874.846 761.849C874.296 761.849 873.846 762.299 873.846 762.849C873.847 763.399 874.517 763.849 875.346 763.849C876.167 763.847 880.747 758.788 885.507 752.599C890.267 746.419 897.286 736.629 901.106 730.849C904.926 725.079 910.937 714.499 914.467 707.349C917.986 700.199 922.436 689.629 924.336 683.849C926.246 678.079 928.706 669.529 929.806 664.849C931.026 659.679 932.506 655.859 933.576 655.089C934.556 654.389 937.366 653.808 939.846 653.788C942.826 653.768 944.856 654.328 945.846 655.448C947.076 656.828 947.216 658.919 946.616 667.238C946.216 672.798 945.206 680.499 944.376 684.349C943.546 688.199 941.697 694.949 940.257 699.349C938.817 703.749 935.716 711.399 933.356 716.349C931.006 721.299 925.486 730.749 921.076 737.349C916.676 743.949 909.546 753.399 905.226 758.349C900.906 763.299 893.766 771.068 881.346 783.878L898.706 819.118C908.246 838.498 916.236 854.919 916.456 855.599C916.666 856.288 916.396 856.848 915.846 856.849C915.296 856.849 909.336 852.179 902.596 846.469C895.856 840.769 886.746 832.898 882.346 828.998C877.137 824.369 874.257 822.419 874.096 823.378C873.956 824.188 876.146 829.469 878.956 835.099C881.756 840.739 886.096 848.499 888.596 852.349C891.096 856.199 896.106 862.309 899.736 865.929C903.786 869.959 908.666 873.608 912.346 875.378C915.646 876.958 920.596 878.479 923.346 878.759C927.826 879.209 928.636 879.679 931.146 883.309C932.686 885.529 934.446 888.929 935.066 890.849C935.996 893.778 935.866 895.079 934.266 898.738C933.006 901.628 928.906 906.418 922.306 912.738C916.786 918.028 904.876 927.749 895.826 934.349C886.786 940.949 876.426 949.279 872.826 952.849C869.215 956.429 852.445 974.09 804.846 1024.85L799.806 1022.1C797.036 1020.59 792.686 1017.55 785.507 1011.35L797.826 994.349C804.606 984.999 813.776 972.629 818.206 966.849C822.636 961.079 830.737 950.729 836.217 943.849C841.686 936.979 850.326 926.399 855.416 920.349C860.506 914.299 869.846 903.729 876.156 896.849C882.475 889.979 887.445 884.13 887.196 883.849C886.956 883.579 882.166 884.218 866.346 887.208L856.846 879.288C851.616 874.938 840.876 865.068 832.976 857.358C825.076 849.658 814.526 838.629 809.526 832.849C804.536 827.079 796.596 817.179 791.876 810.849C787.156 804.529 780.796 795.299 777.746 790.349C774.686 785.399 770.497 778.199 768.427 774.349C766.357 770.499 762.636 762.629 760.166 756.849C757.696 751.079 753.576 740.278 746.346 719.349V693.349C746.346 679.049 746.686 665.219 747.096 662.599C747.656 659.069 747.526 657.858 746.596 657.868C745.826 657.888 744.126 662.828 742.206 670.618C740.476 677.628 737.556 687.169 735.706 691.839C733.716 696.849 730.916 701.849 728.846 704.049C725.837 707.269 724.716 707.799 720.846 707.839C718.367 707.879 714.767 708.278 712.846 708.748C710.327 709.358 708.856 709.209 707.596 708.219C705.936 706.919 705.946 706.318 707.846 696.099C708.956 690.189 711.086 679.808 712.596 673.038C714.106 666.26 715.116 660.542 714.846 660.309C714.566 660.079 712.476 662.468 710.186 665.618C707.896 668.768 704.306 674.949 702.196 679.349C700.096 683.749 696.326 692.979 689.266 712.349L681.806 713.139C677.707 713.569 672.437 713.689 670.096 713.389C666.697 712.959 665.847 712.458 665.846 710.849C665.846 709.749 667.006 703.339 668.416 696.599C669.826 689.869 670.806 683.899 670.586 683.349C670.366 682.799 665.496 689.449 649.346 713.889L600.346 713.878C573.396 713.868 548.526 713.519 538.826 712.349L538.836 708.599C538.846 705.509 539.246 704.778 541.096 704.418C542.337 704.178 549.197 703.719 556.346 703.389C563.496 703.069 574.067 702.118 579.846 701.278C585.616 700.448 595.517 698.478 601.846 696.908C608.166 695.338 617.847 692.378 623.346 690.328C628.846 688.278 637.847 684.349 643.346 681.589C648.846 678.829 656.266 674.749 659.846 672.519C663.416 670.289 670.396 665.479 675.346 661.839C680.296 658.189 687.946 651.759 692.346 647.549L700.346 639.878L705.346 640.349ZM756.677 799.828C757.05 799.812 762.109 805.551 767.936 812.578C773.756 819.608 784.846 832.338 792.576 840.858C800.306 849.388 811.966 861.558 818.486 867.898C825.006 874.248 834.166 882.878 847.346 894.698L843.346 900.229C841.146 903.279 833.446 913.999 826.226 924.059C819.006 934.129 808.706 948.658 803.326 956.358C797.946 964.058 788.606 977.558 782.566 986.358C776.533 995.149 771.537 1002.46 771.467 1002.63C771.397 1002.78 768.196 1002.22 764.346 1001.38C760.496 1000.54 755.646 999.068 753.566 998.108C751.486 997.148 749.796 995.798 749.816 995.108C749.836 994.418 751.947 990.368 754.507 986.108C757.077 981.848 764.116 970.488 770.166 960.858C776.206 951.238 788.286 932.668 796.996 919.608C805.716 906.548 812.836 895.518 812.836 895.108C812.826 894.698 810.236 892.938 807.086 891.198C803.926 889.458 797.746 885.348 793.346 882.068C788.946 878.788 781.066 871.668 775.836 866.238C770.606 860.798 762.996 851.408 758.927 845.358C754.857 839.308 748.936 828.958 745.766 822.358C742.597 815.759 740.246 809.909 740.536 809.358C740.846 808.768 741.566 808.979 742.286 809.858C742.956 810.688 750.506 819.458 759.066 829.358C767.616 839.258 775.576 848.258 776.736 849.358C777.906 850.458 779.076 851.018 779.356 850.608C779.626 850.198 776.416 843.448 772.217 835.608C768.017 827.768 763.476 818.888 762.116 815.858C760.756 812.838 758.826 807.998 757.826 805.108C756.816 802.218 756.307 799.848 756.677 799.828ZM452.636 476.038C454.066 473.628 455.696 471.979 456.346 472.299C456.987 472.609 458.646 473.128 460.036 473.458C461.436 473.788 462.626 474.808 462.677 475.708C462.737 476.608 458.916 484.999 454.196 494.349C449.476 503.699 440.646 520.799 434.586 532.349C428.526 543.899 413.346 572.469 400.846 595.849C388.356 619.219 368.456 656.349 356.626 678.349C344.796 700.349 318.916 748.269 299.116 784.849C279.326 821.429 257.386 861.929 250.366 874.849C243.336 887.769 233.426 905.999 228.336 915.349C223.246 924.699 217.066 936.399 214.586 941.349C212.116 946.299 206.326 955.389 201.726 961.549C197.117 967.707 193.008 972.767 192.596 972.799C192.186 972.829 192.126 971.838 192.456 970.599C192.796 969.359 195.336 962.949 198.116 956.349C200.896 949.749 212.476 925.899 223.846 903.349C235.216 880.799 251.396 849.519 259.786 833.849C268.186 818.179 283.936 788.929 294.796 768.849C305.656 748.769 320.526 721.099 327.836 707.349C335.146 693.599 348.106 669.299 356.636 653.349C365.176 637.399 384.516 601.399 399.636 573.349C414.746 545.299 432.286 512.899 438.596 501.349C444.916 489.799 451.226 478.408 452.636 476.038ZM387.566 855.328C391.856 852.118 392.416 851.939 393.816 853.389C395.196 854.808 395.166 855.068 393.596 855.918C392.636 856.438 391.166 858.438 390.346 860.358C389.486 862.358 388.846 866.858 388.846 870.858C388.846 874.708 389.446 879.318 390.186 881.108C390.926 882.898 394.076 886.718 402.846 894.858L400.096 905.608C397.706 914.948 397.366 918.128 397.476 929.858C397.556 937.288 398.226 946.839 398.976 951.089C400.306 958.608 400.286 958.829 398.346 958.839C396.736 958.849 395.346 956.488 391.156 946.608C388.306 939.868 383.906 928.288 381.386 920.858C378.856 913.438 376.126 904.098 375.316 900.108C374.506 896.118 373.836 889.148 373.826 884.608C373.816 879.538 374.426 874.628 375.406 871.858C376.286 869.388 378.317 865.448 379.927 863.108C381.537 860.768 384.966 857.268 387.566 855.328ZM460.846 877.918C461.117 877.858 461.676 878.159 462.086 878.578C462.496 879.008 457.536 884.758 451.066 891.358C444.606 897.958 437.216 906.508 434.646 910.358C432.076 914.208 429.257 919.388 428.386 921.858C427.246 925.108 426.806 930.028 426.826 939.608C426.846 949.728 426.546 952.778 425.596 952.528C424.906 952.348 423.326 950.668 422.086 948.778C420.836 946.898 418.877 941.308 417.717 936.358C416.567 931.408 415.386 924.658 415.096 921.358C414.786 917.758 415.086 913.758 415.846 911.358C416.556 909.158 418.526 905.398 420.236 902.998C421.946 900.608 426.047 896.619 429.346 894.139C432.646 891.659 438.496 888.039 442.346 886.089C446.196 884.139 451.816 881.528 454.846 880.288C457.866 879.048 460.566 877.988 460.846 877.918ZM551.596 523.868C554.486 523.858 559.207 524.348 562.096 524.958C564.986 525.578 569.817 527.228 572.846 528.648C575.996 530.119 580.797 533.698 584.096 537.028C587.256 540.228 589.846 543.639 589.846 544.599C589.846 545.559 586.026 552.089 581.346 559.099C576.677 566.108 572.957 572.307 573.096 572.868C573.236 573.428 579.426 570.478 586.846 566.318C594.266 562.158 600.476 558.889 600.636 559.049C600.776 559.235 594.16 569.709 585.906 582.349C577.658 594.996 571.338 605.455 571.876 605.599C572.406 605.739 577.236 603.008 582.596 599.528C587.956 596.048 596.737 590.648 602.096 587.528C607.456 584.408 612.066 581.849 612.346 581.849C612.616 581.849 612.856 582.189 612.876 582.599C612.892 583.012 603.364 592.351 591.706 603.349C580.036 614.349 564.386 628.908 556.916 635.708C549.456 642.498 541.766 649.308 536.346 653.608L527.846 648.778C523.176 646.118 514.736 641.778 509.106 639.148C503.476 636.508 498.526 634.689 498.106 635.099C497.687 635.509 500.127 641.129 503.516 647.599C506.916 654.059 511.716 664.299 514.186 670.349C516.656 676.399 519.646 685.179 520.816 689.849C522.746 697.518 522.856 699.279 521.876 707.849C521.286 713.079 520.107 721.399 519.257 726.349C518.417 731.299 516.376 741.429 514.736 748.849C513.086 756.269 510.006 769.329 507.866 777.849C505.736 786.369 503.056 796.609 499.846 807.849L502.776 813.099C504.386 815.989 506.866 821.839 508.276 826.099C510.196 831.898 510.596 834.349 509.846 835.849C509.296 836.949 506.936 839.159 504.596 840.759C502.256 842.359 496.966 845.119 492.846 846.889C488.716 848.659 481.066 851.659 475.846 853.549C470.616 855.439 458.246 859.399 448.346 862.339C438.447 865.279 426.067 868.849 420.846 870.269C411.867 872.719 411.276 872.759 410.076 871.099C409.386 870.139 408.806 868.219 408.786 866.849C408.776 865.449 410.686 861.709 413.136 858.349C415.546 855.049 420.636 849.429 424.456 845.849C428.276 842.269 436.556 835.049 442.866 829.799C449.186 824.549 458.396 817.158 463.346 813.378C468.296 809.588 472.696 806.238 473.116 805.918C473.546 805.607 473.436 799.718 472.886 792.849C472.326 785.969 471.426 762.119 470.876 739.849C470.326 717.579 469.606 690.579 469.276 679.849C468.926 668.509 469.136 654.489 469.786 646.349C470.396 638.649 471.556 628.519 472.366 623.849C473.166 619.179 474.736 612.089 475.836 608.099C476.946 604.109 478.806 598.939 479.986 596.599C481.156 594.259 485.486 588.299 489.596 583.349C493.706 578.399 502.986 567.879 510.206 559.969C517.436 552.049 528.516 540.698 534.846 534.738L546.346 523.889L551.596 523.868ZM267.806 566.849C268.648 566.849 275.417 568.179 282.846 569.809C290.267 571.439 305.567 574.569 316.846 576.759C328.116 578.949 343.647 581.638 351.346 582.738C359.046 583.828 368.836 584.978 373.096 585.288C379.066 585.718 380.846 586.199 380.846 587.349C380.846 588.179 379.216 592.119 377.217 596.099C375.227 600.089 366.626 616.399 358.126 632.349C349.616 648.299 337.296 670.799 330.726 682.349C324.166 693.899 317.106 705.599 315.036 708.349C311.516 713.028 310.956 713.369 306.316 713.679C303.576 713.859 294.816 713.518 286.846 712.908C278.867 712.308 266.266 711.139 258.846 710.299C251.417 709.469 237.466 707.429 227.846 705.769C218.217 704.109 206.967 702.069 202.846 701.229C198.716 700.399 184.096 697.209 170.346 694.139C156.598 691.069 144.448 688.518 143.346 688.458C141.926 688.378 139.986 690.389 136.666 695.349C134.086 699.199 129.166 707.749 125.717 714.349C121.497 722.459 116.986 729.269 111.826 735.349C107.616 740.299 100.616 748.848 96.2664 754.358C91.9064 759.858 86.8061 766.829 81.4861 775.349L87.3464 827.049L84.8464 828.849C83.4665 829.839 79.5363 831.598 76.0964 832.748C72.4065 833.988 67.2864 834.858 63.5964 834.858C60.1566 834.858 54.6465 834.159 51.3464 833.299C48.0465 832.429 41.5765 830.068 36.9666 828.038C32.3578 826.009 28.4186 824.019 28.2166 823.599C28.0166 823.189 31.1663 817.339 35.2263 810.599C39.2863 803.869 46.5061 791.149 51.2761 782.349C56.0361 773.549 66.3961 753.529 74.2761 737.849C84.9161 716.699 91.5461 704.969 99.9861 692.349C106.236 682.999 114.726 669.819 118.846 663.059C122.976 656.299 127.706 648.649 132.376 641.349L181.856 641.139C228.576 640.939 231.486 640.819 233.846 639.049C235.216 638.009 237.336 635.409 238.556 633.259C239.766 631.109 241.526 626.199 242.456 622.349C243.396 618.499 245.846 610.849 247.906 605.349C249.976 599.849 253.346 591.529 255.406 586.849C257.466 582.179 260.746 575.769 262.706 572.599C264.656 569.439 266.956 566.849 267.806 566.849ZM718.797 751.969C721.696 751.899 722.916 752.199 722.297 752.849C721.777 753.389 714.146 756.798 705.346 760.418C696.547 764.048 678.766 771.278 665.846 776.498C652.916 781.728 617.486 795.869 587.096 807.929C556.712 819.987 531.405 829.855 530.846 829.858C530.296 829.858 528.446 826.368 526.746 822.108C525.036 817.848 523.346 812.278 522.346 805.118L535.346 801.068C542.497 798.848 558.017 794.089 569.846 790.509C581.666 786.929 601.466 781.079 613.846 777.509C626.216 773.939 645.566 768.548 656.846 765.528C668.116 762.518 683.647 758.678 691.346 756.998C699.046 755.318 707.366 753.519 709.846 753.009C712.316 752.499 716.347 752.029 718.797 751.969ZM978.846 496.908C982.426 496.418 987.146 496.198 989.346 496.438C991.547 496.668 996.276 497.148 999.856 497.498C1005.17 498.018 1006.41 498.478 1006.61 499.998C1006.74 501.018 1006.29 502.048 1005.6 502.278C1004.91 502.518 999.046 503.988 992.576 505.528C985.276 507.278 980.806 508.819 980.826 509.599C980.836 510.289 981.407 510.858 982.096 510.868C982.787 510.878 985.367 510.179 987.846 509.299C991.156 508.129 994.066 507.888 998.846 508.378C1002.43 508.738 1009.4 510.339 1014.35 511.929C1021.05 514.069 1025.13 516.158 1030.32 520.078C1034.15 522.978 1039.45 528.049 1042.1 531.349C1044.74 534.649 1048.66 540.719 1050.8 544.849C1052.94 548.969 1055.83 555.719 1057.22 559.849C1058.62 563.969 1060.86 572.519 1062.21 578.849C1063.56 585.179 1065.21 594.399 1065.89 599.349C1066.63 604.709 1066.87 612.189 1066.5 617.849C1066.16 623.079 1064.95 632.749 1063.82 639.349C1062.69 645.949 1059.96 658.769 1057.77 667.849C1055.57 676.929 1052.41 689.079 1050.74 694.849C1049.06 700.619 1045.27 712.999 1042.3 722.349C1039.34 731.699 1036.6 741.369 1036.23 743.849C1035.85 746.329 1035.05 748.649 1034.45 749.009C1033.84 749.379 1032.9 749.489 1032.35 749.259C1031.8 749.039 1030.98 744.239 1030.53 738.599C1030.07 732.959 1029.29 725.649 1028.79 722.349C1028.23 718.659 1028.27 708.459 1028.88 695.849C1029.43 684.579 1030.44 671.418 1031.12 666.608C1031.79 661.81 1032.01 657.87 1031.6 657.858C1031.19 657.858 1030.65 658.639 1030.39 659.599C1030.14 660.559 1028.14 669.219 1025.93 678.849C1023.73 688.469 1020.35 704.219 1018.42 713.849C1016.48 723.469 1014.51 734.949 1014.04 739.349C1013.56 743.749 1013.49 750.719 1013.89 754.849C1014.29 759.059 1015.6 764.539 1016.87 767.349C1018.12 770.119 1021.65 774.809 1024.77 777.849C1027.87 780.869 1033.2 784.809 1036.63 786.599C1041.1 788.939 1042.85 790.409 1042.85 791.849C1042.85 793.548 1042.18 793.849 1038.35 793.849C1035.88 793.849 1030.36 793.138 1026.1 792.278C1021.84 791.418 1016.1 789.689 1013.35 788.429C1010.6 787.179 1005.94 783.948 1002.99 781.248C999.396 777.958 996.516 774.048 994.226 769.349C992.356 765.499 990.156 759.199 989.346 755.349C988.546 751.499 987.876 743.509 987.866 737.599C987.856 730.259 988.656 722.489 990.406 713.099C991.806 705.539 994.776 691.469 996.996 681.849C999.216 672.219 1004.45 650.849 1016.22 604.349L1016.27 588.849C1016.32 575.119 1016.08 572.719 1014.13 567.849C1012.92 564.829 1010.41 560.549 1008.56 558.349C1006.61 556.039 1002.91 553.318 999.766 551.908C995.416 549.938 992.276 549.388 983.846 549.078C975.127 548.748 971.316 549.138 961.346 551.378C954.747 552.858 948.216 554.309 944.346 555.139L946.346 552.908C947.447 551.688 950.597 549.198 953.346 547.378C956.097 545.558 961.047 542.959 964.346 541.599C967.646 540.239 973.717 538.569 977.846 537.889C981.966 537.209 989.617 536.809 994.846 537.009C1002.41 537.299 1005.47 537.888 1009.85 539.918C1012.87 541.318 1017.31 544.238 1019.71 546.408C1022.1 548.578 1025.53 552.829 1027.33 555.849C1029.12 558.869 1031.83 564.499 1033.34 568.349C1034.85 572.199 1036.82 578.618 1037.72 582.608C1038.61 586.608 1039.69 589.868 1040.1 589.858C1040.51 589.857 1040.86 587.258 1040.86 584.099C1040.87 580.939 1039.74 573.849 1038.34 568.349C1036.94 562.849 1034.23 555.089 1032.32 551.099C1030.11 546.489 1026.76 541.718 1023.1 537.998C1019.94 534.778 1015.1 530.999 1012.35 529.599C1009.6 528.199 1004.43 526.279 1000.85 525.339C996.137 524.099 992.006 523.768 985.846 524.128C979.717 524.488 974.976 525.499 968.846 527.769C964.176 529.489 957.196 532.749 953.346 535.009C949.497 537.279 944.887 540.188 943.096 541.488C941.306 542.788 939.506 543.638 939.096 543.378C938.686 543.128 941.156 539.748 944.596 535.878C948.036 532.009 950.395 528.62 949.846 528.349C949.296 528.079 946.046 529.759 942.616 532.099C939.196 534.439 932.216 540.399 927.116 545.349C922.006 550.299 917.836 554.799 917.836 555.349C917.836 555.899 919.706 558.599 921.996 561.349C924.276 564.099 928.196 569.499 930.706 573.349C933.206 577.199 936.676 583.719 938.416 587.849C940.156 591.969 942.536 599.179 943.706 603.849C944.866 608.519 946.166 616.308 946.586 621.148C947.216 628.458 947.096 630.098 945.846 630.878C945.016 631.398 941.536 631.829 931.846 631.849L929.346 626.849C927.966 624.099 924.566 615.209 921.776 607.099C917.206 593.819 916.026 591.448 909.886 583.349C906.136 578.399 900.316 571.759 896.956 568.599C893.596 565.439 890.177 562.849 889.346 562.849C888.446 562.849 888.116 563.349 888.526 564.099C888.896 564.789 890.206 566.699 891.436 568.349C892.666 569.999 896.156 576.079 899.206 581.849C902.256 587.619 906.386 597.299 908.386 603.349C910.726 610.398 912.266 617.288 912.686 622.528C913.346 630.638 913.326 630.708 910.846 631.328C909.466 631.678 892.816 631.248 873.846 630.398C854.867 629.538 826.967 628.148 811.846 627.318C796.717 626.488 778.047 625.359 770.346 624.799C762.647 624.239 750.046 623.119 742.346 622.299C734.647 621.479 726.767 620.538 724.846 620.198C722.927 619.858 721.007 619.419 720.596 619.219C720.186 619.019 721.676 616.039 723.906 612.599C726.146 609.159 729.916 602.299 732.286 597.349C734.646 592.399 738.626 582.719 741.116 575.849C743.606 568.969 747.776 555.929 750.366 546.849C752.966 537.769 755.506 526.969 756.026 522.849C756.536 518.719 757.606 514.339 758.396 513.099C759.756 510.989 760.536 510.848 770.596 510.858C776.507 510.868 787.427 511.518 794.846 512.318C802.266 513.118 812.396 514.479 817.346 515.349C822.296 516.219 830.847 518.049 836.346 519.429C841.846 520.809 851.067 523.558 856.846 525.538C862.616 527.518 871.396 530.898 876.346 533.038C881.296 535.178 888.947 538.879 901.346 545.589L913.856 533.469C920.736 526.799 930.636 518.448 935.856 514.898C941.076 511.348 948.946 506.779 953.346 504.729C957.746 502.689 963.816 500.298 966.846 499.418C969.867 498.538 975.267 497.408 978.846 496.908ZM1073.87 736.608C1073.88 772.778 1073.59 784.658 1072.67 785.608C1072 786.298 1070.64 786.858 1069.65 786.858C1068.66 786.858 1065.58 784.268 1062.8 781.108C1060.02 777.948 1056.3 772.438 1054.55 768.868C1051.36 762.409 1051.35 762.318 1051.37 746.868C1051.39 731.928 1051.52 731.008 1054.7 721.858C1056.52 716.638 1060.5 707.068 1063.55 700.608C1068.34 690.448 1069.41 688.858 1073.85 688.858L1073.87 736.608ZM645.467 729.608C645.817 731.668 645.586 735.838 644.976 738.858C644.356 741.888 643.047 745.038 642.047 745.858C640.517 747.128 637.166 747.259 619.797 746.719C608.547 746.369 584.386 746.028 532.846 745.858L531.096 743.248C529.727 741.208 529.566 740.078 530.356 737.998C531.116 736.028 532.706 734.918 536.606 733.608C539.486 732.648 546.006 731.418 551.096 730.878C556.187 730.338 576.547 729.058 596.346 728.028C616.146 727.008 635.156 726.098 644.846 725.858L645.467 729.608ZM679.596 723.858C686.846 723.858 687.966 724.098 688.846 725.858C689.396 726.959 689.846 730.559 689.846 733.858C689.846 739.548 689.676 739.958 686.596 741.868C684.807 742.978 681.546 744.378 679.346 744.988C677.146 745.598 672.196 746.158 661.346 746.358L661.436 740.358C661.486 736.898 662.226 732.978 663.186 731.108C664.096 729.318 666.306 726.958 668.096 725.858C670.656 724.289 673.107 723.868 679.596 723.858ZM727.346 716.918C729.546 716.868 731.916 717.399 732.616 718.089C733.366 718.849 733.876 721.879 733.846 731.858L729.596 733.839C727.256 734.919 721.066 736.699 715.846 737.799C709.378 739.149 706.027 739.458 705.346 738.759C704.796 738.199 704.176 735.399 703.956 732.549C703.746 729.699 703.826 726.238 704.126 724.858C704.456 723.398 705.866 721.839 707.516 721.099C709.076 720.399 713.267 719.199 716.846 718.429C720.416 717.649 725.146 716.978 727.346 716.918ZM92.3464 565.028C95.0672 564.278 108.807 564.059 135.346 564.339C156.796 564.559 179.516 565.239 185.846 565.839C192.167 566.439 205.897 568.248 216.346 569.868C226.796 571.478 237.076 573.148 239.186 573.578C242.806 574.308 242.996 574.529 242.436 577.349C242.116 578.999 240.726 581.369 239.346 582.599C236.866 584.839 236.636 584.849 205.096 584.809C187.636 584.789 170.756 585.129 167.586 585.559C164.416 585.999 161.816 586.799 161.816 587.349C161.817 587.899 163.726 588.708 166.076 589.148C168.426 589.588 180.136 593.188 192.106 597.148C207.606 602.278 213.866 604.789 213.856 605.849C213.856 607.078 211.265 607.489 199.596 608.099C191.756 608.519 173.986 609.189 160.096 609.599C146.206 610.019 134.846 610.689 134.846 611.099C134.847 611.519 136.087 612.079 137.596 612.349C139.107 612.629 146.417 613.769 153.846 614.889C161.266 616.009 172.207 617.249 178.136 617.639C188.166 618.299 188.906 618.499 188.636 620.349C188.406 621.969 186.626 622.799 179.346 624.679C172.957 626.329 166.276 627.158 156.346 627.538C146.697 627.918 138.156 627.588 128.846 626.498C121.417 625.618 112.647 624.199 109.346 623.339C106.047 622.469 101.657 620.659 99.5964 619.309C97.5366 617.959 95.8467 616.179 95.8464 615.349C95.8464 614.529 96.546 610.589 97.406 606.599C98.2658 602.619 98.7159 599.13 98.3962 598.849C98.0862 598.579 89.3757 606.899 79.0457 617.349C68.7157 627.799 56.8763 640.629 52.7263 645.849C48.5863 651.079 42.6364 659.069 33.8464 671.849L34.8464 676.849C35.3964 679.599 35.8359 691.869 35.8259 704.099C35.8259 716.338 35.4859 726.828 35.0759 727.408C34.676 727.988 33.2163 729.228 31.8464 730.168C30.3165 731.208 27.3963 731.868 24.3464 731.868C21.5965 731.868 15.7464 730.948 11.3464 729.818C6.94655 728.688 2.52628 726.999 1.52612 726.059C-0.163875 724.469 -0.273562 722.378 0.346436 668.349L3.70581 661.849C5.54581 658.279 9.10644 652.429 11.5964 648.849C14.0964 645.279 20.6858 636.958 26.2458 630.368C31.7959 623.778 44.7065 609.608 54.9265 598.868C65.1364 588.138 76.8366 576.378 80.9265 572.738C85.6364 568.538 89.8065 565.728 92.3464 565.028ZM404.677 614.849C404.998 614.852 407.577 619.691 410.396 625.599C413.226 631.519 418.636 641.519 422.436 647.839C426.236 654.159 433.436 665.189 438.436 672.339C445.816 682.898 447.176 685.399 445.686 685.599C444.676 685.739 442.496 685.179 440.846 684.349C439.196 683.529 433.906 679.548 429.096 675.498C424.286 671.458 414.836 662.348 408.106 655.248C396.666 643.198 395.866 642.549 395.846 645.349C395.827 646.999 396.657 650.829 397.677 653.849C398.697 656.879 401.737 663.629 404.427 668.849C407.117 674.079 412.866 683.299 417.206 689.349C421.546 695.399 428.926 705.079 433.616 710.849C438.296 716.629 442.736 722.139 443.486 723.099C444.236 724.068 444.506 725.068 444.096 725.328C443.686 725.588 438.846 723.638 433.346 720.988C427.847 718.338 419.516 713.799 414.846 710.889C410.167 707.989 403.867 703.699 400.846 701.349C397.817 699.009 392.306 693.999 388.596 690.219C384.887 686.439 380.056 680.649 377.856 677.349C375.656 674.049 373.847 670.789 373.846 670.099C373.846 669.419 380.647 656.699 388.967 641.849C397.277 626.999 404.347 614.849 404.677 614.849ZM715.096 570.948C718.666 570.858 718.816 570.989 718.326 573.599C718.046 575.119 715.606 580.849 712.906 586.349C710.216 591.849 705.326 599.949 702.056 604.349C698.786 608.749 691.216 617.028 685.226 622.738C679.246 628.448 670.296 636.169 665.346 639.889C660.396 643.609 652.296 649.209 647.346 652.349C642.396 655.479 632.496 660.908 625.346 664.398C618.197 667.898 607.616 672.339 601.846 674.269C596.067 676.209 586.056 678.698 579.596 679.818C572.837 680.988 563.386 681.849 557.346 681.849C547.306 681.849 546.856 681.758 547.096 679.778C547.307 678.058 550.167 676.649 563.346 671.759C572.146 668.489 585.196 662.978 592.346 659.498C599.496 656.028 610.297 650.118 616.346 646.378C622.396 642.628 629.817 637.718 632.846 635.479C635.866 633.228 641.947 628.228 646.346 624.358C650.746 620.489 656.846 614.629 659.906 611.339C662.966 608.049 668.856 601.299 672.986 596.349C677.116 591.399 683.387 585.148 686.927 582.458C690.457 579.768 695.707 576.508 698.596 575.208C701.486 573.908 705.537 572.448 707.596 571.948C709.656 571.458 713.037 571.008 715.096 570.948ZM428.967 567.849C430.576 567.849 430.866 568.939 431.266 576.599C431.516 581.449 432.686 588.479 433.876 592.349C435.066 596.199 437.906 603.179 440.186 607.849C442.476 612.529 446.707 619.839 454.846 631.849L454.596 647.099C454.346 662.088 454.306 662.359 452.096 662.599C450.426 662.789 448.616 661.369 445.076 657.099C442.456 653.939 438.767 648.649 436.886 645.349C435.007 642.049 432.256 635.749 430.776 631.349C429.296 626.949 427.526 619.979 426.846 615.849C426.166 611.729 425.546 604.299 425.476 599.349C425.406 594.399 425.746 585.289 426.236 579.099C427.026 569.179 427.347 567.849 428.967 567.849ZM669.516 575.849C670.246 575.849 670.846 576.299 670.846 576.849C670.847 577.399 671.087 578.419 671.386 579.099C671.695 579.83 666.815 584.97 659.746 591.349C653.046 597.399 643.466 605.469 638.456 609.269C633.446 613.079 624.186 619.609 617.876 623.769C611.576 627.939 598.976 635.068 589.876 639.608C575.846 646.618 573.287 647.598 572.967 646.108C572.707 644.898 577.387 639.718 587.967 629.498C596.427 621.338 608.297 610.268 614.346 604.918C620.396 599.568 628.717 592.638 632.846 589.528C636.966 586.418 642.366 582.768 644.846 581.418C647.886 579.758 652.257 578.619 658.346 577.889C663.295 577.299 667.535 576.599 667.766 576.339C667.996 576.069 668.776 575.849 669.516 575.849ZM487.846 488.929C489.216 488.899 490.876 489.208 491.516 489.618C492.416 490.178 492.366 494.739 491.306 508.849C490.536 519.019 489.626 535.679 488.636 564.349L484.246 571.099C481.826 574.809 475.346 583.249 469.846 589.849C464.347 596.448 459.167 601.847 458.346 601.849C457.516 601.849 455.756 599.509 454.396 596.599C453.046 593.709 450.816 585.719 449.436 578.849C448.056 571.969 446.016 559.938 442.846 537.849L445.936 530.099C447.636 525.839 450.667 519.429 452.677 515.849C454.696 512.269 457.936 507.329 459.896 504.849C461.856 502.369 465.686 498.889 468.406 497.099C471.116 495.319 475.036 493.629 477.096 493.349C479.156 493.079 480.766 492.388 480.666 491.818C480.566 491.248 481.576 490.378 482.916 489.878C484.256 489.378 486.466 488.959 487.846 488.929ZM443.346 466.958C443.897 466.918 444.936 467.208 445.646 467.618C446.616 468.158 443.716 474.339 434.546 491.349C427.716 503.999 418.866 520.199 414.876 527.349C410.876 534.499 404.066 546.199 399.736 553.349C395.406 560.499 391.166 567.249 390.316 568.349C388.886 570.189 387.686 570.338 375.556 570.188C368.286 570.098 357.616 569.298 351.846 568.418C346.076 567.538 335.496 565.678 328.346 564.288C321.197 562.888 307.916 559.959 298.846 557.769C289.767 555.579 280.657 553.348 278.596 552.818C276.537 552.288 274.847 551.289 274.846 550.599C274.846 549.909 281.026 538.719 288.596 525.729C296.156 512.739 305.716 495.748 309.846 487.988C315.566 477.218 317.706 474.029 318.846 474.549C319.67 474.919 332.949 475.408 348.346 475.628C364.926 475.868 381.646 475.568 389.346 474.878C396.496 474.248 408.197 472.848 415.346 471.778C422.496 470.698 431.496 469.189 435.346 468.429C439.196 467.659 442.796 466.998 443.346 466.958ZM692.996 427.009C694.886 426.499 696.996 426.558 698.246 427.158C699.406 427.698 703.836 431.008 708.096 434.498C712.356 437.988 715.846 441.189 715.856 441.599C715.856 442.012 716.306 452.021 716.856 463.849C717.396 475.679 718.776 499.519 719.916 516.849C721.616 542.768 721.756 548.478 720.666 549.078C719.935 549.488 715.516 549.818 710.846 549.828C706.176 549.828 696.046 549.378 688.346 548.828C680.647 548.288 669.287 546.939 663.096 545.839C656.907 544.749 649.017 542.839 645.556 541.599C642.096 540.359 636.806 537.488 633.806 535.208C630.806 532.938 621.366 527.499 612.846 523.139C604.327 518.769 592.617 513.349 586.846 511.089C581.076 508.829 574.206 506.388 571.586 505.668C568.216 504.728 566.826 503.838 566.836 502.599C566.846 501.579 570.716 497.858 576.096 493.688C581.186 489.748 590.516 483.138 596.846 478.988C603.177 474.848 615.327 467.418 623.846 462.488C632.367 457.558 650.707 447.738 664.596 440.688C678.485 433.629 691.265 427.469 692.996 427.009ZM741.047 428.299C742.347 426.449 743.166 426.348 752.396 426.988C757.866 427.368 765.946 428.418 770.346 429.328C774.747 430.238 783.967 432.848 790.846 435.118C797.716 437.398 809.867 442.499 817.846 446.469C825.826 450.439 837.517 456.918 843.846 460.858C852.896 466.508 857.286 470.098 864.456 477.698C869.466 483.008 876.926 491.399 881.036 496.349C885.146 501.299 891.507 509.509 895.177 514.599C898.846 519.689 901.846 524.749 901.846 525.849C901.846 527.758 901.656 527.728 897.596 525.269C895.256 523.859 886.596 519.338 878.346 515.248C869.057 510.628 857.446 505.879 847.846 502.769C839.327 500.009 826.947 496.659 820.346 495.339C813.747 494.019 804.517 492.489 799.846 491.938C795.176 491.398 784.256 490.588 775.586 490.148C761.557 489.438 759.836 489.158 759.836 487.599C759.846 486.219 761.676 485.439 768.596 483.889C773.406 482.819 782.517 481.008 788.846 479.878C795.176 478.748 805.517 477.358 811.846 476.788C818.176 476.218 823.576 475.549 823.846 475.299C824.116 475.049 823.956 474.509 823.476 474.099C822.996 473.689 818.276 472.329 812.976 471.089C804.696 469.139 800.476 468.819 782.846 468.759C768.517 468.719 759.336 469.179 752.346 470.309C742.847 471.839 742.286 471.829 741.076 470.139C740.166 468.859 739.786 462.958 739.736 449.318C739.666 434.539 739.967 429.849 741.047 428.299ZM568.596 468.969C570.576 468.899 571.856 469.339 571.876 470.099C571.895 470.789 569.026 474.719 565.507 478.849C561.987 482.969 551.056 494.648 541.226 504.788C529.827 516.538 522.897 522.968 522.096 522.538C521.156 522.018 520.846 516.518 520.846 478.849L527.596 476.809C531.307 475.689 538.847 473.918 544.346 472.858C549.846 471.808 556.826 470.529 559.846 470.019C562.866 469.509 566.806 469.029 568.596 468.969ZM893.846 286.969C897.726 286.829 898.956 287.328 902.766 290.578C905.186 292.648 909.966 297.949 913.376 302.349C916.786 306.749 923.237 315.859 927.717 322.599C935.396 334.178 936.186 335.019 942.096 337.979C945.537 339.699 952.617 342.238 957.846 343.618C965.956 345.768 969.607 346.148 982.846 346.198C995.376 346.258 1000.36 345.828 1008.85 343.998C1014.62 342.748 1026.77 339.228 1035.85 336.158C1044.93 333.098 1056.29 328.859 1061.1 326.719C1065.91 324.589 1070.19 322.838 1070.6 322.818C1071.01 322.809 1071.91 323.929 1072.6 325.318C1073.49 327.118 1073.85 334.369 1073.85 372.849L1066.24 379.099C1062.05 382.539 1055.19 387.919 1050.99 391.049C1046.79 394.189 1039.75 398.898 1035.35 401.538C1030.95 404.168 1023.52 408.189 1018.85 410.469C1014.18 412.749 1005.85 416.289 1000.35 418.339C994.847 420.379 986.296 422.948 981.346 424.038C975.827 425.248 969.817 425.879 965.797 425.679C960.747 425.429 957.556 424.518 951.797 421.708C946.487 419.108 942.196 415.938 936.846 410.648C932.716 406.568 927.286 400.338 924.766 396.788C922.246 393.248 918.646 387.759 916.766 384.589C914.887 381.429 912.787 378.84 912.096 378.839C911.246 378.849 911.056 379.719 911.496 381.599C911.856 383.109 913.876 389.409 915.996 395.599C918.116 401.789 921.256 409.659 922.976 413.099C924.696 416.539 927.736 421.818 929.726 424.828C931.716 427.838 936.046 433.179 939.346 436.679C942.646 440.179 948.157 444.798 951.596 446.948C955.036 449.088 960.656 451.859 964.096 453.099C969.516 455.049 972.267 455.349 999.346 455.269L1017.35 449.019C1027.25 445.569 1036.25 442.519 1037.35 442.219C1038.53 441.909 1036.68 444.299 1032.85 448.049C1029.27 451.549 1022.97 456.709 1018.85 459.509C1014.72 462.309 1007.08 466.758 1001.85 469.378C996.617 472.008 988.516 475.448 983.846 477.038C979.177 478.628 971.516 480.769 966.846 481.809C962.177 482.849 953.176 484.228 946.846 484.878C940.517 485.528 931.726 485.898 927.306 485.698C919.997 485.378 918.396 484.909 909.806 480.509C904.606 477.849 889.326 468.258 875.846 459.208C862.367 450.158 848.427 440.709 844.846 438.219C841.266 435.729 832.266 430.678 824.846 426.988C817.427 423.308 807.297 418.858 802.346 417.118C797.397 415.368 789.746 413.048 785.346 411.958C780.946 410.868 772.616 409.268 766.846 408.418C761.077 407.568 753.537 406.858 750.096 406.858C744.216 406.848 743.856 406.718 744.096 404.608C744.276 403.008 745.216 402.179 747.346 401.719C748.997 401.369 760.467 401.028 772.846 400.958C791.366 400.858 797.336 401.189 806.596 402.839C812.787 403.949 823.807 406.808 831.096 409.198C838.386 411.588 849.967 416.229 856.846 419.509C863.716 422.789 874.857 428.708 881.596 432.658C888.336 436.618 894.076 439.849 894.346 439.849C894.616 439.848 894.846 439.398 894.846 438.849C894.846 438.299 891.986 434.359 888.486 430.099C884.996 425.839 878.976 419.419 875.126 415.849C871.276 412.269 864.576 406.799 860.236 403.679C855.896 400.559 847.846 395.738 842.346 392.958C836.847 390.188 827.506 386.329 821.596 384.389C815.687 382.439 806.686 380.168 801.596 379.328C796.506 378.488 787.286 377.478 781.086 377.078C771.317 376.448 769.836 376.118 769.836 374.599C769.846 373.539 771.926 371.648 775.096 369.818C777.987 368.158 789.347 362.348 800.346 356.908C811.346 351.468 826.647 344.549 834.346 341.509C842.046 338.479 852.176 335.009 856.846 333.799C861.516 332.589 868.266 331.539 871.846 331.469C877.056 331.369 879.437 331.889 883.846 334.049C886.867 335.539 892.157 339.029 895.596 341.799C899.036 344.579 902.186 346.629 902.596 346.349C903.006 346.078 902.326 343.258 901.076 340.099C899.826 336.939 897.106 332.099 895.026 329.349C892.456 325.939 889.386 323.399 885.376 321.349C879.636 318.419 879.186 318.358 866.416 318.578C859.226 318.698 849.746 319.298 845.346 319.908C840.946 320.508 831.496 322.509 824.346 324.349C817.197 326.188 810.557 327.948 809.596 328.269C808.557 328.609 807.827 328.338 807.806 327.599C807.786 326.909 809.696 323.458 812.056 319.918C814.416 316.388 818.827 311.308 821.846 308.628C824.867 305.948 831.847 301.528 837.346 298.809C844.446 295.299 850.686 293.108 858.846 291.278C865.176 289.848 874.617 288.338 879.846 287.908C885.076 287.478 891.366 287.059 893.846 286.969ZM190.846 406.929C192.776 406.869 195.126 407.388 196.076 408.078C197.676 409.248 197.736 410.749 196.816 427.349C196.266 437.249 195.136 450.299 194.306 456.349C193.476 462.399 192.136 468.359 191.326 469.599C190.176 471.338 188.886 471.848 185.596 471.868C182.236 471.888 180.796 471.308 178.706 469.118C177.246 467.598 174.946 464.098 173.586 461.349C172.226 458.599 170.546 454.549 169.856 452.349C169.156 450.149 168.197 447.789 167.717 447.099C167.237 446.409 166.396 446.079 165.846 446.349C165.296 446.619 164.836 448.309 164.836 450.099C164.826 451.889 164.246 454.469 163.556 455.849C162.856 457.219 161.066 458.909 159.566 459.599C157.636 460.489 156.116 460.558 154.346 459.849C152.486 459.109 151.456 457.509 150.336 453.599C149.506 450.709 148.356 440.919 147.786 431.849C147.206 422.77 146.986 414.791 147.296 414.099C147.596 413.409 150.206 412.399 153.096 411.849C155.987 411.299 164.877 409.988 172.846 408.938C180.816 407.898 188.916 406.989 190.846 406.929ZM449.846 416.849C450.947 416.849 455.557 419.298 460.096 422.288C464.636 425.278 471.496 428.918 475.346 430.378C479.196 431.828 485.407 433.318 489.136 433.688C492.876 434.048 496.476 434.038 497.136 433.668C497.807 433.288 500.037 432.838 502.096 432.668C504.166 432.488 505.855 432.119 505.866 431.849C505.876 431.579 505.206 429.889 504.366 428.099C503.526 426.309 502.956 424.108 503.096 423.208C503.237 422.298 504.477 420.688 505.846 419.628C508.326 417.698 508.376 417.699 513.746 420.019C516.726 421.299 520.436 423.809 521.996 425.599C523.896 427.765 525.056 430.432 525.476 433.599C525.826 436.209 525.896 440.829 525.636 443.849C525.356 447.008 524.136 451.188 522.757 453.668C521.337 456.208 518.296 459.359 515.346 461.339C512.447 463.289 507.406 465.398 503.346 466.378C498.086 467.638 493.486 467.949 484.846 467.599C476.527 467.259 471.826 466.559 467.846 465.049C464.827 463.909 459.646 460.979 456.346 458.559C453.046 456.129 448.876 452.158 447.076 449.748C445.286 447.328 443.826 444.789 443.826 444.099C443.836 443.409 444.406 442.668 445.096 442.448C445.787 442.229 449.277 444.239 452.846 446.929C456.416 449.609 460.136 451.808 461.096 451.818C462.056 451.838 462.836 451.508 462.816 451.099C462.806 450.689 461.116 449.599 459.066 448.679C457.026 447.759 452.756 444.049 449.596 440.429C444.966 435.129 443.996 433.428 444.596 431.698C445.006 430.508 445.906 429.388 446.596 429.198C447.287 429.009 448.637 429.638 449.596 430.618C450.556 431.588 453.826 434.279 456.846 436.589C459.866 438.899 462.906 440.808 463.596 440.818C464.286 440.838 464.846 440.398 464.846 439.849C464.846 439.299 463.836 438.438 462.596 437.938C461.356 437.448 458.726 435.308 456.746 433.188C454.766 431.079 451.966 427.779 450.526 425.849C449.086 423.919 447.886 421.109 447.876 419.599C447.856 417.509 448.326 416.849 449.846 416.849ZM215.856 408.849C217.716 408.849 217.996 410.449 220.366 434.099C221.756 447.989 222.876 460.589 222.866 462.099C222.846 464.408 222.166 465.099 218.596 466.429C216.257 467.299 213.447 467.858 212.346 467.668C210.717 467.398 210.286 466.408 210.016 462.339C209.836 459.599 210.416 447.449 211.306 435.349C212.186 423.249 213.136 412.34 213.396 411.099C213.696 409.689 214.616 408.849 215.856 408.849ZM299.096 111.889C300.056 111.869 300.836 112.409 300.826 113.099C300.815 113.79 296.096 122 290.346 131.349C284.587 140.698 280.087 148.567 280.336 148.849C280.586 149.129 283.846 146.448 287.566 142.918C291.296 139.378 296.596 135.039 299.346 133.269C302.096 131.499 306.596 129.148 309.346 128.038C312.577 126.728 318.937 125.618 327.346 124.878C334.496 124.248 347.097 123.749 355.346 123.769C363.886 123.799 375.947 124.569 396.346 127.349L396.656 130.349C396.966 133.308 396.746 133.449 381.656 140.469C373.236 144.389 363.987 148.439 361.096 149.469C358.206 150.499 355.836 151.689 355.846 152.099C355.847 152.509 356.187 152.848 356.596 152.858C357.009 152.869 363.868 153.329 371.846 153.898C379.816 154.458 391.967 156.038 398.846 157.398C405.716 158.768 417.197 161.729 424.346 163.979C431.496 166.239 442.067 170.099 447.846 172.549C453.616 175.009 462.736 179.349 468.106 182.188C473.476 185.028 477.716 187.799 477.526 188.349C477.334 188.899 468.435 191.039 457.757 193.108C447.087 195.178 438.116 197.139 437.846 197.469C437.567 197.789 440.947 201.458 445.346 205.618C449.746 209.778 463.016 221.778 474.846 232.278C486.666 242.788 498.916 253.619 507.786 261.349L507.226 273.349C506.706 284.328 506.886 286.119 509.306 294.349C510.756 299.299 514.737 309.079 524.346 328.828L520.606 336.589C518.546 340.859 516.856 344.909 516.856 345.599C516.846 346.318 515.576 346.849 513.846 346.849C512.197 346.849 510.657 346.288 510.427 345.599C510.197 344.909 509.207 341.649 508.217 338.349C507.227 335.049 503.406 326.279 499.717 318.849C496.037 311.419 488.816 299.038 483.686 291.318C478.546 283.598 469.626 270.998 463.856 263.318C458.086 255.638 448.856 243.899 443.356 237.229C437.316 229.929 430.766 223.209 426.846 220.299C423.266 217.649 416.516 213.008 411.846 209.988C407.166 206.968 398.396 202.118 392.346 199.208C386.297 196.308 376.396 192.318 370.346 190.358C364.297 188.398 355.067 185.919 349.846 184.839C344.617 183.769 334.716 182.428 327.846 181.868C317.346 181.008 312.066 181.169 294.846 182.849C283.568 183.948 273.789 184.848 273.096 184.849C272.406 184.849 271.846 185.529 271.846 186.349C271.847 187.169 272.406 187.849 273.096 187.849C273.787 187.848 278.167 187.169 282.846 186.339C289.766 185.109 293.857 185.008 304.846 185.828C312.266 186.378 321.046 187.298 324.346 187.868C327.646 188.438 332.597 189.379 335.346 189.969C338.097 190.549 344.397 192.298 349.346 193.858C354.296 195.418 362.397 198.469 367.346 200.639C372.296 202.809 380.397 206.988 385.346 209.918C390.296 212.858 398.616 218.479 403.846 222.429C409.067 226.379 418.637 235.059 425.096 241.729C431.556 248.399 440.606 258.909 445.196 265.099C449.786 271.289 456.106 280.399 459.246 285.349C462.386 290.299 469.396 303.349 474.826 314.349C480.256 325.349 485.886 337.949 487.346 342.349C488.806 346.748 489.846 351.238 489.666 352.328C489.446 353.688 484.436 346.918 473.726 330.828C465.136 317.918 454.046 301.949 449.086 295.349C444.126 288.749 436.476 279.079 432.086 273.849C427.686 268.619 419.876 260.279 414.726 255.299C409.566 250.329 402.647 244.349 399.346 242.019C396.047 239.689 391.096 235.979 388.346 233.769C385.596 231.569 380.416 228.108 376.846 226.078C373.267 224.058 365.846 220.559 360.346 218.309C354.847 216.049 345.846 212.979 340.346 211.469C334.847 209.969 330.117 208.999 329.846 209.309C329.566 209.629 329.796 210.268 330.346 210.748C330.896 211.218 333.146 212.178 335.346 212.878C337.547 213.588 343.397 216.029 348.346 218.309C353.296 220.599 362.067 225.578 367.846 229.378C373.616 233.188 382.166 239.509 386.846 243.429C391.516 247.349 399.566 255.008 404.726 260.458C409.886 265.898 416.986 273.949 420.516 278.349C424.036 282.749 430.236 291.079 434.296 296.849C438.356 302.619 445.276 314.329 449.686 322.849C454.086 331.369 460.936 345.549 464.896 354.349C468.856 363.149 473.816 375.529 475.916 381.849C478.026 388.169 480.016 395.599 480.356 398.349C480.916 402.898 480.626 403.918 477.156 409.698C475.056 413.198 472.557 416.458 471.596 416.948C470.326 417.598 467.046 416.589 459.596 413.259C453.957 410.729 448.787 408.929 448.096 409.259C447.406 409.579 445.746 412.209 444.406 415.099C443.056 417.989 441.006 425.079 439.836 430.849C438.666 436.619 437.636 443.459 437.346 450.719L428.346 453.229C423.397 454.618 415.967 456.418 411.846 457.248C407.716 458.078 398.946 459.469 392.346 460.349C385.746 461.219 372.016 462.209 361.846 462.559C348.707 462.999 341.466 462.808 336.846 461.908C333.267 461.218 329.107 460.018 327.596 459.248C326.086 458.478 324.166 456.839 323.336 455.599C322.506 454.358 320.706 446.368 319.336 437.849C317.976 429.329 314.636 406.599 311.916 387.349C309.196 368.099 306.486 347.959 304.846 332.849L308.456 321.599C311.506 312.079 312.146 308.498 312.576 298.349C312.966 289.339 312.676 284.229 311.396 277.849C310.466 273.169 308.406 266.649 306.836 263.349C305.146 259.809 301.586 254.978 298.156 251.568C294.966 248.398 289.416 244.278 285.846 242.408C282.266 240.548 276.866 238.308 273.846 237.418C270.816 236.538 264.066 235.668 258.846 235.488C253.617 235.308 247.997 235.478 246.346 235.858C244.236 236.358 243.796 236.759 244.846 237.219C245.668 237.579 251.747 239.239 258.346 240.898C269.686 243.748 270.666 244.208 276.226 249.128C279.466 251.998 284.136 257.049 286.626 260.349C289.106 263.649 292.416 269.049 293.986 272.349C295.546 275.649 297.547 281.719 298.427 285.849C299.416 290.459 299.836 295.659 299.516 299.349C299.226 302.649 298.006 307.829 296.816 310.849C295.616 313.869 293.186 318.599 291.416 321.349C289.636 324.099 285.526 329.348 282.266 333.028C279.006 336.698 273.416 342.189 263.346 350.769L262.526 360.059C262.086 365.169 260.896 373.849 259.896 379.349C258.886 384.849 257.346 391.939 254.846 400.849L250.596 400.288C248.256 399.978 243.196 399.268 239.346 398.698C235.497 398.138 229.646 397.008 226.346 396.188C223.047 395.369 219.336 394.059 215.846 391.849V360.099C215.836 342.639 215.376 315.299 214.816 299.349C214.256 283.399 213.126 259.779 212.316 246.849C211.496 233.923 210.617 223.125 210.346 222.849C210.086 222.579 209.676 223.029 209.436 223.849C209.196 224.67 208.296 232.779 207.427 241.849C206.557 250.919 204.956 269.829 203.856 283.849C202.766 297.869 200.966 325.329 199.856 344.849C198.746 364.369 197.846 382.939 197.846 391.849L188.596 393.799C183.507 394.869 176.867 396.218 173.846 396.788C170.817 397.368 164.966 398.298 160.846 398.868C156.717 399.428 152.557 400.108 151.596 400.368C150.416 400.698 149.406 399.959 148.486 398.099C147.566 396.239 146.926 389.358 146.526 376.849C146.186 366.669 144.966 350.919 143.806 341.849C142.636 332.779 140.597 319.499 139.257 312.349C137.917 305.199 135.036 292.149 132.866 283.349C130.686 274.549 127.276 262.169 125.286 255.849C122.586 247.299 121.826 243.449 122.316 240.849C122.676 238.919 123.166 232.738 123.846 216.849L119.596 213.748C117.256 212.048 111.856 208.898 107.596 206.748C101.387 203.628 99.8465 202.398 99.8464 198.349L134.096 199.108C152.936 199.528 175.996 200.509 185.346 201.299C194.696 202.089 202.366 202.648 202.396 202.538C202.428 202.434 203.308 200.326 204.346 197.849C205.676 194.709 210.196 189.408 219.296 180.328C226.476 173.168 237.876 162.818 244.636 157.328C251.406 151.839 256.915 146.79 256.886 146.099C256.866 145.299 256.036 145.059 254.596 145.438C253.356 145.758 249.646 147.259 246.346 148.759C243.046 150.259 237.646 153.209 234.346 155.309C231.046 157.419 224.996 161.888 220.896 165.238C216.796 168.598 208.916 175.939 193.346 191.759L184.846 190.878C180.167 190.388 174.317 189.708 171.846 189.368C169.366 189.018 162.956 187.979 157.576 187.049C152.207 186.109 147.828 184.899 147.846 184.349C147.856 183.799 149.756 179.969 152.056 175.849C154.356 171.719 159.126 164.529 162.666 159.849C166.206 155.169 171.627 148.318 174.717 144.618C177.816 140.918 181.136 137.878 182.096 137.868C183.263 137.855 183.826 138.599 183.786 140.099C183.756 141.339 183.196 147.859 182.536 154.599C181.886 161.329 181.686 166.849 182.096 166.849C182.508 166.847 187.008 163.777 192.096 160.028C197.186 156.278 206.297 150.249 212.346 146.639C218.396 143.029 227.616 137.938 232.846 135.328C238.067 132.718 247.967 128.368 254.846 125.648C261.716 122.928 274.097 118.738 282.346 116.318C290.596 113.908 298.136 111.919 299.096 111.889ZM226.096 407.538C226.787 407.098 230.497 406.948 234.346 407.198C238.306 407.468 243.907 408.689 253.096 412.349L252.366 417.849C251.956 420.869 250.586 428.299 249.326 434.349C248.056 440.399 246.186 447.599 245.156 450.349C243.896 453.738 242.656 455.448 241.316 455.648C239.566 455.928 238.546 453.328 232.096 432.148C226.566 414.018 225.136 408.158 226.096 407.538ZM783.096 258.938C790.456 258.868 793.746 259.279 796.516 260.599C798.536 261.559 801.696 264.149 803.536 266.349C805.376 268.549 807.796 273.049 808.906 276.349C810.026 279.649 811.206 285.949 811.536 290.349C812.056 297.278 811.836 299.019 809.896 303.349C808.666 306.099 804.886 311.208 801.507 314.698C798.117 318.188 792.476 323.138 788.976 325.698C784.576 328.908 782.056 331.589 780.856 334.349C779.896 336.549 777.076 341.049 774.606 344.349C772.126 347.649 765.656 354.569 760.226 359.719C754.786 364.879 743.956 374.329 736.156 380.719C723.696 390.929 721.896 392.779 721.446 395.849C721.136 397.929 719.386 401.129 717.136 403.729C714.427 406.868 710.786 409.338 704.346 412.418C698.667 415.128 690.546 417.858 682.346 419.818C675.197 421.528 665.297 424.228 660.346 425.828C655.397 427.438 646.616 430.088 640.846 431.738C635.077 433.388 625.176 435.878 618.846 437.278C612.517 438.668 603.297 440.508 598.346 441.358C593.396 442.208 583.046 443.569 575.346 444.389C567.646 445.199 556.956 445.859 541.846 445.849L539.346 438.849C537.967 434.999 536.846 430.839 536.836 429.599C536.836 428.069 537.876 426.808 540.086 425.648C541.876 424.718 546.046 422.849 549.346 421.509C552.647 420.169 562.097 416.738 570.346 413.898C578.596 411.048 593.897 406.049 604.346 402.769C614.797 399.499 636.737 392.779 653.096 387.839C669.456 382.889 683.296 379.079 683.846 379.349C684.396 379.619 685.297 380.969 685.846 382.349C686.396 383.718 687.406 384.848 688.096 384.858C688.966 384.858 689.526 381.918 689.956 375.108C690.376 368.468 691.436 362.789 693.276 357.349C694.766 352.949 697.396 347.099 699.126 344.349C700.856 341.599 705.436 336.018 709.306 331.948C713.606 327.428 720.437 321.868 726.846 317.668C732.616 313.888 741.737 308.898 747.096 306.568C752.466 304.249 756.855 301.789 756.846 301.099C756.846 300.379 755.576 299.849 753.846 299.849C752.197 299.849 749.266 299.169 747.346 298.349C744.127 296.969 743.896 296.588 744.476 293.599C744.816 291.809 745.976 287.649 747.036 284.349C748.106 281.049 750.007 276.779 751.257 274.849C752.507 272.919 755.056 269.829 756.936 267.969C758.816 266.109 762.136 263.669 764.316 262.559C766.496 261.439 769.426 260.188 770.816 259.778C772.206 259.358 777.737 258.978 783.096 258.938ZM710.226 2.09863C711.516 0.478633 712.916 -0.171914 714.726 0.0380859C716.766 0.278099 717.406 0.958678 717.596 3.09863C717.756 4.80872 716.466 8.20883 714.186 12.0986C712.176 15.5386 710.376 18.6886 710.186 19.0986C709.997 19.5088 712.207 20.9485 715.096 22.2783C717.986 23.6183 721.586 25.8684 723.096 27.2783C724.606 28.6983 725.846 30.7487 725.846 31.8486C725.846 32.9485 725.176 34.0685 724.346 34.3486C723.517 34.6186 721.946 34.8486 720.846 34.8486C719.746 34.8486 716.146 33.2685 712.846 31.3486C709.547 29.4191 706.508 27.8396 706.096 27.8389C705.686 27.8289 699.316 38.9589 691.936 52.5889C684.566 66.2088 675.947 82.0687 672.797 87.8486C669.647 93.6186 654.806 121.069 639.816 148.849C624.836 176.629 600.426 221.849 585.576 249.349C570.716 276.849 543.266 327.699 524.556 362.349C505.857 396.998 489.827 426.136 488.946 427.118C487.896 428.278 486.486 428.699 484.846 428.349C483.477 428.059 482.238 427.599 482.096 427.339C481.956 427.069 484.816 420.889 488.436 413.599C492.066 406.309 498.656 393.369 503.096 384.849C507.526 376.329 518.576 355.399 527.646 338.349C536.716 321.299 556.156 285.079 570.846 257.849C585.546 230.619 600.835 202.279 604.836 194.849C608.836 187.419 620.656 165.599 631.116 146.349C641.566 127.099 660.006 93.1286 672.096 70.8486C684.176 48.5687 694.916 28.8887 697.846 23.8486L693.596 21.748C691.256 20.5981 687.886 18.578 686.096 17.248C683.937 15.6481 682.853 14.0152 682.846 12.3486C682.846 10.8486 683.646 9.44863 684.846 8.84863C686.366 8.08872 688.157 8.44869 692.346 10.3486C695.366 11.7186 699.307 12.8579 701.096 12.8779C703.946 12.9079 704.596 12.3884 706.346 8.68848C707.446 6.35852 709.186 3.39866 710.226 2.09863ZM728.846 258.979C733.516 258.919 738.926 259.289 740.846 259.809C742.766 260.329 745.136 261.669 746.096 262.799C747.786 264.778 747.746 264.928 745.096 267.208C743.586 268.508 740.826 272.668 738.956 276.458C737.096 280.248 734.396 286.798 732.956 291.028C730.476 298.328 730.106 298.828 725.346 301.378C722.597 302.848 718.326 305.548 715.846 307.378C713.367 309.208 709.287 312.878 706.757 315.528C704.237 318.178 700.586 322.369 698.646 324.849C696.696 327.329 693.066 332.949 690.566 337.349C688.066 341.749 684.557 348.949 682.757 353.349C680.967 357.749 678.946 362.019 678.276 362.849C677.616 363.669 674.426 365.758 671.206 367.488C667.986 369.218 659.496 372.648 652.346 375.118C645.197 377.578 631.466 381.928 621.846 384.778C612.216 387.628 603.676 390.349 602.846 390.839C601.906 391.389 600.866 391.268 600.076 390.528C599.386 389.878 598.816 388.789 598.826 388.099C598.836 387.409 602.306 381.789 606.536 375.599C610.766 369.409 616.916 360.749 620.196 356.349C623.476 351.949 626.986 347.339 629.846 343.849L634.096 346.759C636.436 348.359 639.587 349.939 641.096 350.259C642.606 350.589 643.846 350.618 643.846 350.349C643.846 350.079 642.166 346.589 640.116 342.599C636.576 335.739 636.376 334.838 636.366 325.849C636.346 316.789 636.526 316.009 640.186 308.849C642.296 304.719 646.346 298.239 649.186 294.429C652.026 290.629 656.676 285.449 659.516 282.929C662.356 280.409 667.756 276.518 671.516 274.278C675.276 272.038 681.717 268.828 685.846 267.148C689.966 265.468 696.497 263.349 700.346 262.429C704.196 261.519 710.266 260.398 713.846 259.938C717.427 259.478 724.177 259.049 728.846 258.979ZM951.596 198.998C964.226 198.858 964.846 198.939 964.846 200.849C964.846 202.438 964.186 202.849 961.596 202.839C959.806 202.829 953.616 203.758 947.846 204.898C942.077 206.038 932.616 208.328 926.846 209.988C921.076 211.648 911.616 214.579 905.846 216.509C900.076 218.429 890.396 221.829 884.346 224.059C878.298 226.278 872.898 228.487 872.346 228.958C871.796 229.428 871.576 230.068 871.846 230.368C872.117 230.678 877.747 229.749 884.346 228.309C890.946 226.869 902.647 224.639 910.346 223.349C918.046 222.059 931.097 220.489 939.346 219.849C947.596 219.219 962.427 218.849 990.266 219.349L994.806 224.988C997.306 228.088 1001.05 233.488 1003.13 236.988C1005.2 240.488 1008.05 246.949 1009.46 251.349C1010.86 255.749 1012.31 262.549 1012.68 266.469C1013.21 272.078 1013.03 273.948 1011.85 275.318C1010.66 276.688 1009.43 276.908 1005.85 276.398C1003.37 276.038 999.326 275.109 996.846 274.339C994.367 273.559 990.326 271.189 987.846 269.059C985.366 266.929 982.466 263.429 981.406 261.269C980.336 259.119 977.896 255.999 975.996 254.349C974.096 252.699 971.616 250.669 970.496 249.849C968.526 248.409 968.476 248.469 969.206 251.349C969.616 252.999 971.966 258.849 974.416 264.349C976.876 269.849 980.786 277.669 983.116 281.729C985.446 285.778 990.046 292.038 993.346 295.628C996.646 299.228 1000.93 303.158 1002.85 304.378C1004.77 305.598 1008.15 307.068 1010.35 307.658C1012.55 308.248 1017.05 309.399 1020.35 310.219C1023.65 311.029 1028.71 311.958 1031.6 312.278C1036.2 312.778 1036.85 313.129 1036.88 315.099C1036.91 317.098 1035.71 317.708 1026.13 320.578C1020.2 322.358 1011.3 324.499 1006.35 325.339C1001.4 326.179 992.616 326.868 986.846 326.868C979.877 326.868 973.826 326.238 968.846 324.988C964.716 323.948 958.656 321.809 955.366 320.229C952.076 318.638 946.886 314.869 943.826 311.849C939.816 307.879 936.886 303.569 933.316 296.349C930.016 289.682 926.696 284.661 923.356 281.288C920.596 278.508 916.096 275.168 913.346 273.868C910.597 272.558 906.547 271.299 904.346 271.049C902.146 270.809 895.846 271.409 890.346 272.389C882.306 273.809 877.396 274.038 865.346 273.528C855.217 273.098 847.746 272.228 842.346 270.828C837.947 269.688 832.156 267.539 829.486 266.049C826.806 264.569 821.856 260.779 818.486 257.639C812.456 252.039 812.176 251.899 802.846 250.219C797.617 249.279 792.977 248.249 792.526 247.929C792.076 247.609 795.456 244.478 800.026 240.979C804.606 237.479 811.266 232.908 814.846 230.828C818.427 228.758 825.397 225.029 830.346 222.549C835.296 220.069 844.076 216.398 849.846 214.378C855.617 212.368 865.747 209.398 872.346 207.788C878.946 206.168 890.647 203.938 898.346 202.818C906.046 201.698 918.197 200.408 925.346 199.958C932.496 199.508 944.307 199.068 951.596 198.998ZM608.266 276.809C608.856 276.779 610.017 277.508 610.846 278.418C612.116 279.818 612.166 281.008 611.177 286.208C610.377 290.428 610.286 295.469 610.886 302.349C611.356 307.849 611.767 313.589 611.797 315.099C611.847 317.718 611.496 317.919 604.596 319.349C600.606 320.169 592.176 321.489 585.846 322.269C579.517 323.059 570.857 323.958 566.596 324.278C560.477 324.728 558.536 324.538 557.346 323.349C556.016 322.019 556.016 321.378 557.406 317.599C558.266 315.259 560.836 309.749 563.116 305.349C565.696 300.379 569.546 295.018 573.306 291.198C576.916 287.518 581.557 284.008 584.846 282.479C587.867 281.069 593.947 279.409 598.346 278.799C602.746 278.179 606.536 277.489 606.766 277.259C606.996 277.039 607.666 276.829 608.266 276.809ZM645.596 266.929C653.986 266.869 656.836 267.169 656.816 268.099C656.795 268.789 653.646 272.499 649.806 276.349C645.966 280.199 640.816 286.049 638.356 289.349C635.896 292.649 632.546 298.049 630.906 301.349C629.256 304.649 627.567 309.488 627.136 312.118C626.547 315.698 625.916 316.878 624.596 316.868C623.476 316.858 622.676 315.859 622.376 314.099C622.116 312.589 621.436 306.059 620.876 299.599C620.186 291.789 620.176 286.259 620.836 283.099C621.376 280.489 623.156 276.439 624.776 274.099C626.406 271.759 629.216 269.209 631.036 268.429C633.196 267.509 638.266 266.979 645.596 266.929ZM591.346 197.448C595.676 194.158 596.376 193.909 596.636 195.509C596.805 196.52 593.606 203.2 589.526 210.349C585.456 217.499 576.046 234.369 568.636 247.849C561.216 261.329 551.556 279.099 547.156 287.349C542.766 295.599 538.537 303.829 537.757 305.639C536.987 307.448 535.786 308.908 535.096 308.889C534.406 308.869 532.587 307.388 531.047 305.599C529.507 303.809 527.206 299.649 525.946 296.349C524.676 293.049 522.926 286.969 522.056 282.849C520.746 276.669 520.687 274.559 521.677 270.849C522.347 268.369 525.246 262.748 528.116 258.358C530.996 253.958 538.516 245.018 544.846 238.488C551.176 231.948 563.097 220.898 571.346 213.918C579.596 206.938 588.596 199.528 591.346 197.448ZM176.096 278.858C175.686 278.858 173.096 280.149 170.346 281.719C167.596 283.289 162.096 287.669 158.136 291.459C154.166 295.249 150.906 298.909 150.886 299.599C150.857 300.499 151.896 300.659 154.596 300.179C157.866 299.589 158.827 299.909 162.096 302.679C164.156 304.419 166.526 305.849 167.346 305.849H176.846C177.397 305.848 179.197 304.388 180.846 302.599C182.976 300.279 183.836 298.349 183.836 295.849C183.836 293.919 183.386 290.659 182.836 288.599C182.296 286.539 180.726 283.499 179.346 281.849C177.977 280.199 176.507 278.849 176.096 278.858ZM905.566 134.179C906.247 134.27 915.807 145.259 926.816 158.599C937.836 171.939 946.846 183.189 946.846 183.599C946.853 184.009 938.414 184.949 928.096 185.679C917.787 186.399 903.947 187.878 897.346 188.948C890.747 190.028 878.596 192.648 870.346 194.788C862.097 196.928 849.046 200.988 841.346 203.818C833.647 206.648 821.496 211.778 814.346 215.208C807.197 218.648 796.846 224.088 791.346 227.318C785.846 230.538 777.406 235.799 772.596 239.009C767.787 242.219 762.947 244.848 761.846 244.849C760.747 244.849 759.856 244.509 759.876 244.099C759.886 243.689 761.806 240.918 764.126 237.958C766.446 234.988 772.207 228.918 776.927 224.458C781.637 219.998 789.276 213.649 793.896 210.349C798.506 207.049 808.596 201.179 816.316 197.309C824.036 193.439 834.616 188.858 839.846 187.128C845.076 185.388 852.497 183.069 856.346 181.969C860.196 180.869 864.586 179.708 866.096 179.408C867.606 179.098 868.846 178.399 868.846 177.849C868.846 177.299 868.176 176.849 867.346 176.849C866.516 176.849 859.436 178.188 851.596 179.818C843.757 181.458 829.246 185.008 819.346 187.708C809.447 190.418 797.076 194.038 782.346 198.878L780.556 196.618C779.476 195.248 778.786 192.759 778.816 190.349C778.846 188.149 779.577 183.419 780.427 179.849C781.276 176.279 783.046 171.099 784.356 168.349C785.666 165.599 788.457 161.368 790.547 158.958C792.637 156.548 796.147 153.518 798.346 152.229C800.546 150.949 803.926 149.408 805.846 148.818C807.767 148.228 821.497 147.339 836.346 146.849C859.286 146.089 864.926 145.589 873.846 143.519C879.616 142.189 888.847 139.499 894.346 137.549C899.846 135.599 904.896 134.079 905.566 134.179ZM735.096 170.849C735.596 170.849 736.236 172.539 736.516 174.599C736.796 176.659 738.127 181.049 739.467 184.349C740.807 187.649 743.526 192.829 745.516 195.849C748.886 200.988 749.086 201.709 748.496 206.849C748.146 209.869 746.797 214.599 745.507 217.349C744.207 220.099 740.946 224.789 738.246 227.769C735.556 230.759 731.206 234.919 728.596 237.019C724.737 240.128 723.046 240.848 719.596 240.828C717.256 240.818 713.326 239.878 710.846 238.738C708.367 237.608 703.536 233.789 700.096 230.259C695.807 225.859 693.847 223.069 693.846 221.349C693.846 219.299 694.336 218.839 699.346 218.769L696.596 217.309C693.866 215.859 693.846 215.778 693.846 205.349C693.846 199.579 694.076 194.169 694.346 193.349C694.616 192.529 695.746 191.849 696.846 191.849C697.947 191.849 701.657 192.569 711.346 195.049L717.096 191.948C720.255 190.239 722.845 188.619 722.846 188.349C722.846 188.079 712.716 188.079 700.346 188.349C678.588 188.829 677.816 188.778 676.846 186.849C676.296 185.749 675.856 183.389 675.866 181.599C675.866 179.809 676.206 177.819 676.616 177.179C677.016 176.529 678.696 175.448 680.346 174.778C682.247 174.008 692.437 173.309 708.116 172.889C721.735 172.519 733.174 171.908 733.536 171.528C733.886 171.158 734.586 170.849 735.096 170.849ZM684.846 193.648C687.256 191.759 687.386 191.759 688.616 193.519C689.336 194.559 689.876 198.249 689.866 202.099C689.846 208.178 689.646 208.849 687.846 208.849C686.226 208.849 685.516 207.598 682.346 195.618L684.846 193.648ZM709.096 72.8887C709.787 72.9098 714.337 76.8494 719.206 81.6387C724.076 86.4287 729.967 92.8186 732.297 95.8486C734.627 98.8688 738.647 104.949 741.217 109.349C743.787 113.749 747.186 121.399 748.776 126.349C750.366 131.299 751.926 137.819 752.246 140.849C752.576 143.869 753.066 149.159 753.346 152.599C753.766 157.858 753.566 158.989 752.096 159.759C751.136 160.259 746.076 160.919 740.846 161.229C735.616 161.549 720.096 162.298 706.346 162.908C692.597 163.518 679.788 164.089 677.886 164.179C674.976 164.319 674.196 163.879 672.916 161.349C672.086 159.699 671.227 154.969 671.007 150.849C670.747 146.129 671.206 140.569 672.236 135.849C673.146 131.719 675.346 124.969 677.126 120.849C678.916 116.719 682.466 109.969 685.026 105.849C687.586 101.719 693.787 93.3986 698.797 87.3486C703.806 81.2991 707.895 75.5593 707.876 74.5986C707.856 73.6386 708.406 72.8687 709.096 72.8887ZM663.656 122.868C663.826 122.858 663.716 124.869 663.406 127.349C663.096 129.819 662.116 133.309 661.236 135.099C660.346 136.889 658.206 139.818 656.486 141.618C654.756 143.418 652.787 144.878 652.096 144.868C651.407 144.858 650.836 144.739 650.826 144.599C650.816 144.459 653.107 139.869 655.927 134.389C658.737 128.919 661.566 124.088 662.196 123.658C662.826 123.228 663.486 122.868 663.656 122.868ZM639.346 111.868C639.896 111.828 640.687 112.138 641.096 112.568C641.506 112.999 639.746 117.169 637.177 121.849C634.617 126.529 630.787 133.159 628.677 136.599C626.577 140.039 624.326 142.739 623.696 142.599C623.066 142.459 621.106 138.068 616.126 123.349L627.236 117.648C633.346 114.518 638.796 111.918 639.346 111.868Z" fill="white"/>
</svg>
